<svg height="512" viewBox="0 0 128 128" width="512" xmlns="http://www.w3.org/2000/svg"><g><circle cx="64" cy="64" fill="#3ea2e5" r="57.693"/><circle cx="64" cy="64" fill="#dfeef4" r="46.973"/><g fill="#6d7a84"><path d="m65.75 17.07v7.71a1.75 1.75 0 0 1 -3.5 0v-7.71c.58-.03 1.16-.04 1.75-.04s1.17.01 1.75.04z"/><path d="m65.75 103.22v7.71c-.58.03-1.16.04-1.75.04s-1.17-.01-1.75-.04v-7.71a1.75 1.75 0 0 1 3.5 0z"/><path d="m110.97 64c0 .59-.01 1.17-.04 1.75h-7.71a1.75 1.75 0 0 1 0-3.5h7.71c.03.58.04 1.16.04 1.75z"/><path d="m26.53 64a1.746 1.746 0 0 1 -1.75 1.75h-7.71c-.03-.58-.04-1.16-.04-1.75s.01-1.17.04-1.75h7.71a1.746 1.746 0 0 1 1.75 1.75z"/><g><path d="m48.109 69.174 6.244-4.674c1.893-1.425 2.434-2.359 2.434-3.391a2.02 2.02 0 0 0 -2.238-1.893 5.409 5.409 0 0 0 -4.031 2.114l-2.63-2.606a8.4 8.4 0 0 1 6.76-3.318c3.785 0 6.44 2.31 6.44 5.531 0 2.236-.934 3.981-3.883 6l-2.656 1.894h6.711v3.76h-13.151z"/><path d="m73.769 69.371h-8.186l-.369-3.2 7.646-10.443h5.113v10.152h2.139v3.491h-2.139v3.22h-4.2zm0-3.491v-5.8l-4.2 5.8z"/></g><g><path d="m74.189 40.557a25.516 25.516 0 0 1 6.2 3.837 1.75 1.75 0 0 0 2.246-2.684 29.043 29.043 0 0 0 -7.053-4.362 1.75 1.75 0 0 0 -1.4 3.209z"/><path d="m88.511 56.745a1.75 1.75 0 1 0 3.357-.992 28.913 28.913 0 0 0 -3.758-7.972 1.75 1.75 0 0 0 -2.9 1.957 25.432 25.432 0 0 1 3.301 7.007z"/><path d="m91.305 62.25a1.749 1.749 0 0 0 -1.75 1.75 25.555 25.555 0 1 1 -26.043-25.542l-3.257 3.256a1.749 1.749 0 1 0 2.474 2.474l6.034-6.032c.015-.015.026-.035.042-.051.03-.032.056-.067.084-.1a1.794 1.794 0 0 0 .125-.175c.018-.029.033-.06.049-.091a1.842 1.842 0 0 0 .1-.226c.008-.023.014-.046.021-.07a1.715 1.715 0 0 0 .064-.277v-.02c0-.013 0-.026 0-.039a1.649 1.649 0 0 0 .018-.186c0-.035-.008-.069-.01-.1s0-.047-.007-.07a1.681 1.681 0 0 0 -.046-.266c-.007-.025-.015-.049-.022-.073a1.892 1.892 0 0 0 -.094-.244c-.012-.024-.025-.047-.038-.07a1.629 1.629 0 0 0 -.136-.216c-.017-.023-.037-.045-.055-.067a1.6 1.6 0 0 0 -.1-.127l-6.034-6.033a1.75 1.75 0 0 0 -2.474 2.475l2.85 2.838a29.051 29.051 0 1 0 29.955 29.032 1.75 1.75 0 0 0 -1.75-1.75z"/></g></g></g></svg>