<?xml version="1.0" standalone="no"?>
<svg viewBox="0 0 200 200" xmlns="http://www.w3.org/2000/svg">
  <path fill="#F2CD47" d="M39.2,-66.2C52.6,-60.1,66.5,-53.3,72.9,-42.1C79.3,-31,78.2,-15.5,78.5,0.1C78.7,15.8,80.3,31.6,75.5,45.4C70.7,59.3,59.3,71.2,45.7,79.5C32,87.9,16,92.6,1.4,90.1C-13.1,87.6,-26.2,77.8,-39.2,69.1C-52.2,60.4,-65.2,52.8,-71.4,41.4C-77.6,30.1,-77,15,-76.5,0.3C-75.9,-14.4,-75.4,-28.8,-70.3,-42C-65.1,-55.2,-55.4,-67.1,-42.9,-73.6C-30.4,-80.2,-15.2,-81.4,-1.2,-79.4C12.9,-77.4,25.8,-72.2,39.2,-66.2Z" transform="translate(100 100)" />
</svg>
