<svg width="28" height="28" viewBox="0 0 28 28" fill="none" xmlns="http://www.w3.org/2000/svg">
<g clip-path="url(#clip0)">
<path d="M9.87109 28H5.38715C4.63818 28 4.02893 27.3907 4.02893 26.6418V16.528H1.4129C0.66394 16.528 0.0546875 15.9185 0.0546875 15.1698V10.836C0.0546875 10.0871 0.66394 9.47781 1.4129 9.47781H4.02893V7.30761C4.02893 5.15579 4.70462 3.32504 5.98273 2.01361C7.2666 0.696197 9.06082 0 11.1714 0L14.5911 0.00555417C15.3388 0.00683593 15.947 0.616089 15.947 1.36377V5.38757C15.947 6.13653 15.3379 6.74578 14.5892 6.74578L12.2867 6.74664C11.5846 6.74664 11.4058 6.88742 11.3675 6.93057C11.3045 7.00213 11.2295 7.20443 11.2295 7.76306V9.47759H14.4161C14.656 9.47759 14.8885 9.53677 15.0882 9.64828C15.5191 9.88903 15.787 10.3443 15.787 10.8362L15.7852 15.17C15.7852 15.9185 15.176 16.5278 14.427 16.5278H11.2295V26.6418C11.2295 27.3907 10.6201 28 9.87109 28V28ZM5.67041 26.3585H9.58783V15.7931C9.58783 15.2931 9.99478 14.8863 10.4947 14.8863H14.1438L14.1453 11.1193H10.4944C9.99457 11.1193 9.58783 10.7125 9.58783 10.2125V7.76306C9.58783 7.12176 9.65298 6.39245 10.1371 5.8443C10.722 5.18164 11.6437 5.10516 12.2863 5.10516L14.3055 5.10431V1.64661L11.1701 1.64148C7.77823 1.64148 5.67041 3.81274 5.67041 7.30761V10.2125C5.67041 10.7123 5.26367 11.1193 4.76379 11.1193H1.69617V14.8863H4.76379C5.26367 14.8863 5.67041 15.2931 5.67041 15.7931V26.3585ZM14.5879 1.64703H14.5881H14.5879Z" fill="#404042"/>
</g>
<defs>
<clipPath id="clip0">
<rect width="28" height="28" fill="white"/>
</clipPath>
</defs>
</svg>
