<svg width="384" height="389" viewBox="0 0 384 389" fill="none" xmlns="http://www.w3.org/2000/svg">
<path d="M191.52 0.219971C110.7 0.219971 24.0801 32.72 24.0801 32.72C24.0801 32.72 24.0801 194.94 24.0801 240.65C24.0801 286.36 85.2001 375.13 191.52 388.6C297.85 375.13 358.96 286.35 358.96 240.65C358.96 194.94 358.96 32.72 358.96 32.72C358.96 32.72 272.34 0.219971 191.52 0.219971Z" fill="#CDE9FF"/>
<path d="M191.52 23.5699C120.42 23.5699 44.21 52.16 44.21 52.16C44.21 52.16 44.21 194.87 44.21 235.09C44.21 275.3 97.98 353.4 191.52 365.25C285.06 353.4 338.83 275.3 338.83 235.09C338.83 194.88 338.83 52.16 338.83 52.16C338.83 52.16 262.62 23.5699 191.52 23.5699Z" fill="#B6DFFF"/>
<path d="M383.61 372.94C340.45 382.43 270.7 388.6 192 388.6C113.3 388.6 43.5501 382.43 0.390137 372.94H383.61Z" fill="#5C99BC"/>
<path d="M83.2104 76.4099C83.1804 76.5599 83.1604 76.7299 83.1604 76.8899C83.1504 76.8199 83.1404 76.7399 83.1304 76.6799C83.1704 76.5999 83.1904 76.5099 83.2104 76.4099Z" fill="#DAE7FF"/>
<path d="M83.1602 76.89C83.2002 77.14 83.2102 77.39 83.2002 77.65C83.1602 77.4 83.1402 77.15 83.1602 76.89Z" fill="#DAE7FF"/>
<path d="M78.9101 228.3C77.8801 229.27 76.2601 228.15 75.3101 227.11C73.8101 225.44 72.3101 223.78 70.8201 222.11C70.9601 222.26 71.0401 222.63 71.1101 223.08C67.0101 219.55 64.6601 214.75 62.3901 209.92C59.7601 204.32 57.1301 198.71 54.5101 193.11C52.8201 189.51 48.1201 181.24 54.2101 179.49C54.1001 180.76 54.0901 182.07 54.3401 183.33C54.8801 186.2 55.9801 188.94 57.0801 191.64C58.8601 196.02 60.6301 200.4 62.4001 204.77C63.9101 208.49 64.5101 210.86 68.0501 213.31C69.0801 214.03 70.2101 214.64 71.1401 215.48C72.1401 216.38 72.8801 217.5 73.5901 218.63C75.5601 221.75 77.3401 224.98 78.9101 228.3Z" fill="#FED2E2"/>
<path d="M67.6103 372.99H46.2803C46.2803 372.19 47.9003 369.78 49.7403 367.94C50.2703 367.4 51.4603 366.12 52.5903 364.91C53.8503 363.56 55.0203 362.26 55.1403 362.13H55.1503C55.1503 362.12 55.1503 362.12 55.1503 362.12H65.3403C65.6003 362.69 65.8503 363.26 66.0803 363.86C66.0803 363.86 66.0803 363.86 66.0903 363.88C66.9903 366.22 67.6003 368.98 67.6103 372.99Z" fill="#FED2E2"/>
<path d="M120.89 162.59L125.16 176.14L164.4 194.03L161.89 201.87C161.89 201.87 117.94 192.44 114.19 188.08C110.44 183.71 108.08 168.8 108.08 168.8L120.89 162.59Z" fill="#FD9AB6"/>
<path d="M108.95 177.09C108.16 175.23 106.04 169.93 104.78 164.21C102.81 155.27 112.91 137.18 112.91 137.18C117.1 143.11 121.96 157.37 124.78 166.18C120.53 171.72 115.25 174.53 108.95 177.09Z" fill="#FF7F51"/>
<path d="M69.9401 325.11C68.1301 342.87 65.3401 362.13 65.3401 362.13H55.1401C55.1401 362.13 55.1601 345.67 55.2701 328.53C56.6901 328.31 58.1101 328.07 59.5201 327.79C63.0301 327.09 66.5101 326.22 69.9401 325.11Z" fill="#FED2E2"/>
<path d="M59.5203 362.12L56.9403 372.98H46.2803C46.2803 372.18 47.9003 369.77 49.7403 367.93C50.2703 367.39 51.4603 366.11 52.5903 364.9C53.8503 363.55 55.0203 362.25 55.1403 362.12H59.5203Z" fill="#FEC4CD"/>
<path d="M59.5201 327.78V362.13H55.1401C55.1401 362.13 55.1601 345.67 55.2701 328.53C56.6901 328.3 58.1101 328.06 59.5201 327.78Z" fill="#FEC4CD"/>
<path d="M107.82 209.08H80.9105H54.0005C53.7605 209.86 52.5705 218.52 52.5205 232.12C52.5105 235.74 52.5805 239.73 52.7805 244.01C52.9905 248.68 53.2905 253.21 53.6405 257.55C53.7305 258.66 53.8205 259.74 53.9105 260.83C55.0105 273.95 56.2705 284.96 55.8405 291.58C55.5505 296.07 55.3805 312.59 55.2805 328.52C60.2405 327.75 65.1505 326.66 69.9505 325.11C71.1405 313.43 71.9105 302.4 71.1805 297.91C69.9105 290.06 78.3405 265.25 80.9205 241.65C83.5005 265.24 91.9305 290.06 90.6605 297.91C89.9805 302.11 90.7505 312.04 91.9805 322.86C97.0305 322.04 101.99 320.61 106.63 318.57C106.45 306.21 106.23 295.12 106 291.57C105.57 284.94 106.83 273.93 107.93 260.82C108.02 259.74 108.11 258.65 108.2 257.54C108.54 253.21 108.85 248.67 109.06 244C109.26 239.72 109.33 235.73 109.32 232.11C109.26 218.52 108.07 209.87 107.82 209.08Z" fill="#FEC4CD"/>
<path d="M90.0104 122.67C87.8604 117.85 89.3204 110.19 89.3204 110.19L80.7504 113.87L72.2004 110.19C72.2004 110.19 74.2304 120.76 70.0304 124.88C69.1104 125.8 67.5404 126.66 65.6804 127.55C59.1104 130.67 48.6704 133.98 48.0404 140.11C47.1004 149.33 49.9204 156.41 52.7004 162.67C69.7504 159.03 80.8004 138.21 90.0104 122.67Z" fill="#FEC4CD"/>
<path d="M113.48 140.11C112.76 133.02 98.9705 129.71 93.1305 126.11C92.4705 125.71 91.9204 125.31 91.5005 124.89C90.8704 124.28 90.3904 123.52 90.0104 122.68C80.7904 138.22 69.7404 159.04 52.7104 162.68C55.2004 168.28 57.6805 173.22 57.4305 178.46C57.0305 186.71 54.4505 196.78 53.7205 209.1H107.8C107.07 196.78 104.5 186.72 104.1 178.46C103.57 167.36 115.26 157.58 113.48 140.11Z" fill="#FED2E2"/>
<path d="M113.71 240.79C114.87 263.7 114.03 286.47 113.66 309.36C113.63 311.23 84.6102 310.52 66.5602 309.9C58.4102 309.62 52.5102 309.36 52.5102 309.36C51.6302 309.32 50.3802 282.5 50.3002 280.87C49.3402 263.88 48.9602 246.83 49.6002 229.82C49.9402 220.97 50.5702 212.11 51.7202 203.33C52.3002 198.9 53.0602 194.46 53.7402 190C54.4602 185.24 55.0602 180.47 55.2402 175.7C55.3802 171.95 54.6902 168.45 53.6802 165.03C51.2802 156.91 47.1102 149.3 48.0502 140.1C48.6702 133.97 59.1102 130.67 65.6802 127.55C65.8802 127.54 66.1102 127.54 66.3102 127.52C66.7502 136.69 71.4202 142.25 76.7502 143.88C76.7502 143.89 76.7502 143.89 76.7502 143.89C84.3502 146.24 93.2802 140.6 93.1402 126.11C98.9802 129.71 113.59 132.99 114.31 140.08C115.21 148.86 111.28 157.09 108.54 165.32C106.8 170.54 105.6 175.02 105.92 179.52C106.16 183 106.86 186.54 107.76 190.57C111.45 207.01 112.87 223.98 113.71 240.79Z" fill="#FF7F51"/>
<path d="M80.9101 174.2C76.5501 174.72 71.1101 176.82 66.5001 176.38C66.5001 176.38 66.5001 176.38 66.4901 176.38C60.5301 172.64 66.8401 158.37 76.7401 143.9C76.7401 143.9 76.7401 143.9 76.7401 143.89C71.4101 142.26 66.7501 136.7 66.3001 127.53C66.1001 127.55 65.8701 127.55 65.6701 127.56C59.1001 130.68 48.6601 133.99 48.0401 140.11C47.1001 149.3 51.2801 156.92 53.6701 165.04C54.6801 168.46 55.3601 171.96 55.2301 175.71C55.1901 176.88 55.1201 178.04 55.0301 179.21C54.9701 179.96 54.8901 180.72 54.8201 181.47C54.7801 181.88 54.7501 182.28 54.7001 182.69C54.5901 183.69 54.4701 184.68 54.3401 185.68C54.3201 185.83 54.3001 185.98 54.2801 186.13C53.5101 191.88 52.4601 197.63 51.7101 203.34C50.5601 212.13 49.9301 220.98 49.5901 229.83C48.9401 246.84 49.3301 263.89 50.2901 280.88C50.3801 282.51 51.6201 309.33 52.5001 309.37C52.5001 309.37 58.4101 309.63 66.5501 309.91C66.0101 299.55 64.5101 270.19 63.9201 257.56C63.2001 242.1 62.9501 225.85 62.9501 224.54C62.9501 223.24 63.9201 211.31 63.9201 211.31C64.0201 206.79 64.4901 202.17 64.0301 197.67C63.5201 192.67 66.1401 188.53 69.9401 185.23C73.3601 182.26 77.8701 179.99 82.3701 180.73C84.8001 181.13 87.0901 181.58 89.6101 181.53C90.4601 181.51 95.4801 180.19 95.8101 180.41C92.2101 178.07 88.9401 173.23 80.9101 174.2Z" fill="#D76E43"/>
<path d="M96.5606 100.91C95.4406 109.13 89.7106 116.5 83.2706 118.23C81.9406 118.6 80.5706 118.71 79.2106 118.55C78.7306 118.49 78.2406 118.4 77.7806 118.28C70.2606 116.33 65.5906 106.64 66.6306 97.26C67.8206 86.48 71.7506 79.91 81.9206 80.38C82.5406 80.41 83.1906 80.47 83.8606 80.54C85.6606 80.76 87.2306 81.18 88.6106 81.75C96.1106 84.9 97.6406 92.93 96.5606 100.91Z" fill="#FED2E2"/>
<path d="M81.4606 103.32C81.4606 101.33 81.4106 99.04 80.8906 97.89" stroke="#FE8E9A" stroke-width="0.5" stroke-miterlimit="10"/>
<path d="M96.5605 100.91C95.4405 109.13 89.7105 116.5 83.2705 118.23C84.4305 116.95 85.5705 115.68 86.7205 114.39C89.3805 111.42 92.1905 108.12 92.3905 104.14C92.4705 102.72 92.1905 101.31 91.9305 99.92C91.7005 98.76 91.4705 97.58 90.8705 96.58C89.7405 94.7 87.5205 93.74 86.1805 92C84.2405 89.46 84.5705 85.47 86.6905 83.15C87.2205 82.57 87.8805 82.09 88.6005 81.76C96.1105 84.9 97.6405 92.93 96.5605 100.91Z" fill="#FEC4CD"/>
<path d="M73.5804 90C70.2404 97.91 71.9304 107.21 75.9904 114.78C76.6104 115.93 77.2904 117.08 77.7904 118.28C70.2704 116.33 65.6004 106.64 66.6404 97.26C67.8304 86.48 71.7604 79.91 81.9304 80.38C81.2304 82.71 79.6804 84.79 77.6004 86.05C76.7104 86.6 75.7204 87.02 74.9704 87.75C74.3304 88.37 73.9204 89.18 73.5804 90Z" fill="#FEC4CD"/>
<path d="M71.9407 103.86L66.7607 98.64" stroke="#B4DAFF" stroke-width="0.5" stroke-miterlimit="10" stroke-linecap="round"/>
<path d="M91.1104 106.89L97.7104 103.65" stroke="#B4DAFF" stroke-width="0.5" stroke-miterlimit="10" stroke-linecap="round"/>
<path d="M93.3705 105.07C93.2205 110.1 92.6405 111.98 92.6405 111.98C92.6405 111.98 87.1405 119.9 78.5305 119.14C78.3905 119.13 78.2505 119.12 78.1005 119.1C77.7905 119.06 77.4805 119.01 77.1705 118.96C74.9005 118.53 73.0605 117.37 71.6005 115.94C71.4805 115.84 71.3905 115.74 71.2905 115.63C71.1705 115.51 71.0705 115.4 70.9605 115.27C70.6405 114.91 70.3405 114.55 70.0705 114.2C67.4705 110.77 66.4805 106.79 66.4805 106.79L68.8805 100.6C69.8205 101.44 70.8805 102.18 72.0305 102.81C78.2305 106.26 87.0405 106.84 93.3705 105.07Z" fill="#B4DAFF"/>
<path d="M78.5204 119.14C78.3804 119.13 78.2404 119.12 78.0904 119.1C77.7804 119.06 77.4704 119.01 77.1604 118.96C74.8904 118.53 73.0504 117.37 71.5904 115.94C71.4704 115.84 71.3804 115.74 71.2804 115.63C71.1604 115.51 71.0604 115.4 70.9504 115.27C70.6304 114.91 70.3304 114.55 70.0604 114.2C69.2104 113.09 65.8504 108.39 66.4704 106.79L68.8704 100.6C69.8104 101.44 70.8704 102.18 72.0204 102.81C72.4304 105.75 72.1604 114.96 78.5204 119.14Z" fill="#A0D0FF"/>
<path d="M86.6005 101.13C86.5405 101.65 86.9205 102.13 87.4605 102.19C88.0005 102.26 88.4905 101.89 88.5505 101.36C88.6105 100.84 88.2305 100.36 87.6905 100.3C87.1505 100.24 86.6605 100.61 86.6005 101.13Z" fill="#684346"/>
<path d="M75.2206 99.67C75.1606 100.19 75.5406 100.67 76.0806 100.73C76.6206 100.8 77.1106 100.43 77.1706 99.9C77.2306 99.38 76.8506 98.9 76.3106 98.84C75.7706 98.78 75.2906 99.15 75.2206 99.67Z" fill="#684346"/>
<path d="M91.1105 98.1599C88.6805 96.7599 85.5905 97.1599 85.7905 96.0899C85.9805 95.0299 90.0305 96.1099 91.1105 98.1599Z" fill="#684346"/>
<path d="M72.7803 96.3C75.4703 95.52 78.3803 96.65 78.4403 95.58C78.5103 94.5 74.3103 94.57 72.7803 96.3Z" fill="#684346"/>
<path d="M78.1405 85.25C76.0705 86.28 73.5205 86.25 71.8305 87.94C70.8705 88.91 70.3805 90.28 69.9405 91.58C67.9305 97.52 68.1005 103.81 70.4105 109.7C71.3705 112.15 72.3205 114.6 73.2805 117.05C70.5805 116.03 67.9705 114.82 65.4705 113.41C64.7705 113.01 64.0905 112.61 63.4105 112.19C62.3105 111.51 61.2005 110.76 60.3205 109.85C59.7805 109.3 59.3205 108.68 59.0005 107.99C58.0205 105.92 58.3505 103.52 58.8105 101.29C60.5805 92.57 65.6405 82.98 72.4705 77C74.9305 74.84 79.9405 71.36 82.4805 75.07C82.8305 75.57 83.0405 76.12 83.1505 76.68C83.7405 79.96 80.6905 83.98 78.1405 85.25Z" fill="#E5EEFF"/>
<path d="M102.181 109.28C101.861 110.16 101.441 110.83 100.931 111.38C100.121 112.25 99.0707 112.82 97.8307 113.45C97.2507 113.75 96.6707 114.04 96.0907 114.31C95.3607 114.67 94.6207 115 93.8407 115.27C92.9807 115.57 91.0307 115.66 90.3607 116.19C91.2607 115.47 91.6707 114.31 92.0307 113.21C92.5207 111.7 93.1507 110.13 93.6707 108.53C93.6907 108.51 93.7007 108.49 93.7007 108.46C94.2907 106.63 94.7407 104.77 94.7007 102.93C94.6307 100.33 93.8707 97.76 92.6107 95.46C91.0307 92.57 89.7707 92.77 86.9507 91.35C85.1107 90.42 83.2407 88.48 82.3907 86.5C81.7807 85.09 81.5107 83.69 81.4307 82.28C81.2907 79.96 81.6907 77.63 81.9907 75.22C86.1207 74.29 90.5307 75.75 93.6307 78.76C98.0307 83.0499 100.701 89.33 101.351 95.69C101.811 100.08 103.771 104.91 102.181 109.28Z" fill="#E5EEFF"/>
<path d="M98.5904 106.66C98.2104 109.34 97.4904 112 96.1004 114.3C95.3704 114.66 94.6304 114.99 93.8504 115.26C92.9904 115.56 91.0404 115.65 90.3704 116.18C91.2704 115.46 91.6804 114.3 92.0404 113.2C92.5304 111.69 93.1604 110.12 93.6804 108.52C93.7004 108.5 93.7104 108.48 93.7104 108.45C94.4204 106.7 94.7504 104.81 94.7104 102.92C94.6404 100.32 93.8804 97.75 92.6204 95.45C91.0404 92.56 89.7804 92.76 86.9604 91.34C85.1204 90.41 83.2504 88.47 82.4004 86.49C81.7904 85.08 81.5204 83.68 81.4404 82.27C82.4504 80.88 83.1904 79.23 83.2104 77.65C83.4704 79.48 84.8004 81.58 85.7204 82.79C87.3604 84.95 89.2504 86.61 91.4204 88.23C90.4204 86.54 89.4404 84.85 88.4404 83.16C90.8804 85.07 93.2004 87.19 94.9704 89.72C98.3204 94.47 99.3904 101.01 98.5904 106.66Z" fill="#DAE7FF"/>
<path d="M78.1404 85.2499C76.0704 86.2799 73.5204 86.2499 71.8304 87.9399C70.8704 88.9099 70.3804 90.2799 69.9404 91.5799C67.9304 97.5199 68.1004 103.81 70.4104 109.7C71.3704 112.15 72.3204 114.6 73.2804 117.05C73.1404 116.69 70.8604 116.07 70.4304 115.88C69.3204 115.39 68.2604 114.81 67.1604 114.31C65.2604 113.46 63.5904 112.66 62.2204 110.99C61.2004 109.75 60.5104 108.21 60.4204 106.61C61.7904 107.47 63.2104 108.26 64.6704 108.97C62.4704 103.19 63.9504 96.1999 66.7704 90.8999C69.2204 86.2799 73.1404 82.3999 77.9004 80.2399C78.8904 79.7899 79.9104 79.4099 80.8004 78.7999C81.6204 78.2499 82.8004 77.5999 83.1404 76.6799C83.7404 79.9599 80.6904 83.9799 78.1404 85.2499Z" fill="#DAE7FF"/>
<path d="M75.3203 227.12C73.8203 225.45 72.3203 223.79 70.8303 222.12C70.9703 222.27 71.0503 222.64 71.1203 223.09C71.2303 223.75 71.2903 224.53 71.4203 224.88C71.7703 225.79 72.1903 226.81 72.6903 227.63C74.0103 229.8 75.8703 231.79 77.4203 233.81C77.5503 233.97 77.6803 234.16 77.7003 234.37C77.7403 234.77 77.3303 235.09 76.9303 235.11C76.5303 235.14 76.1603 234.96 75.8003 234.77C74.0503 233.89 72.4403 232.79 71.2803 231.21C70.4003 230.02 69.5303 228.9 68.5503 227.8C70.1303 230.37 71.9503 232.79 73.9803 235.02C74.7503 235.86 75.6103 236.81 75.6003 237.96C74.6803 238.5 73.4703 238.04 72.6503 237.35C70.5503 235.61 68.4403 233.25 66.8603 231.02C68.3603 233.5 69.8603 236 71.3503 238.48C71.4903 238.71 71.6303 238.98 71.5703 239.24C71.5003 239.57 71.1303 239.76 70.7903 239.72C70.4603 239.69 70.1603 239.5 69.9003 239.29C67.5203 237.42 65.6603 234.55 63.9003 232.13C64.8303 234 65.3503 236.06 65.4303 238.14C65.0903 238.37 64.6703 238.02 64.4203 237.7C60.5403 232.57 59.3003 225.43 58.1903 219.28C57.1603 213.51 53.8003 208.57 50.6103 203.78C47.3203 198.83 44.6803 193.74 42.3203 188.31C41.5803 186.6 40.8303 184.87 40.4603 183.03C39.5903 178.61 40.7403 173.57 41.1103 169.1C41.1603 168.6 41.2203 168.06 41.3103 167.54C41.5403 166.41 41.9903 165.36 42.9503 164.81C43.9103 164.29 45.1003 164.44 46.1403 164.74C48.5603 165.42 50.7903 166.74 52.5403 168.54C55.3703 171.47 54.4703 175.49 54.2103 179.38C54.1103 180.72 54.0903 182.05 54.3403 183.3C54.8803 186.17 55.9803 188.91 57.0803 191.61C58.8603 195.99 60.6303 200.37 62.4003 204.74C63.9103 208.46 64.5103 210.83 68.0503 213.28C69.0803 214 70.2103 214.61 71.1403 215.45C72.1403 216.35 72.8803 217.47 73.5903 218.6C75.5603 221.71 77.3403 224.94 78.9203 228.26C77.8803 229.27 76.2603 228.16 75.3203 227.12Z" fill="#FEC4CD"/>
<path d="M52.4303 148.38C50.5003 142.65 48.6703 138.04 48.6703 138.04C44.4803 143.97 43.1203 161.97 40.3003 170.78C44.9603 174.78 48.5003 177.16 53.0403 178.05C53.6303 168.16 54.0103 158.27 52.4303 148.38Z" fill="#FF7F51"/>
<path d="M56.8002 165.07C56.3002 160.59 54.3102 153.96 52.4302 148.38C54.0102 158.27 53.6302 168.16 53.0402 178.05C54.4002 178.32 55.8402 178.45 57.4402 178.45C58.2202 176.59 57.6802 172.97 56.8002 165.07Z" fill="#D76E43"/>
<path d="M116.58 372.99H95.2604C95.2704 367.94 96.2204 364.9 97.5204 362.13H97.4904C97.4904 362.13 94.0604 341.22 91.9604 322.87C93.8404 322.57 95.6904 322.18 97.5304 321.72C100.65 320.92 103.7 319.87 106.61 318.59C106.91 338.67 107.1 362.13 107.1 362.13H107.71C107.71 362.13 111.95 366.78 113.12 367.95C114.96 369.78 116.58 372.18 116.58 372.99Z" fill="#FED2E2"/>
<path d="M95.2604 372.99C95.2704 367.94 96.2204 364.9 97.5204 362.13H97.4904C97.4904 362.13 94.0604 341.22 91.9604 322.87C93.8404 322.57 95.6904 322.18 97.5304 321.72C98.4704 332.74 100.95 361.5 101.14 362.13C101.29 362.63 104.86 368.73 107.37 372.99H95.2604Z" fill="#FEC4CD"/>
<path d="M116.58 373.12H95.2603C95.2703 369.11 95.8703 366.35 96.7703 364.01C96.7903 363.99 96.7903 363.99 96.7903 363.99C97.4903 365.66 100.34 366.45 103.47 366.44C105.85 366.43 108.39 365.95 110.27 365.04C111.4 366.26 112.59 367.53 113.12 368.07C114.96 369.91 116.58 372.31 116.58 373.12Z" fill="#2E4A88"/>
<path d="M107.38 373.12H95.2603C95.2703 369.11 95.8703 366.35 96.7703 364.01C96.7903 363.99 96.7903 363.99 96.7903 363.99C97.4903 365.66 100.34 366.45 103.47 366.44L107.38 373.12Z" fill="#293D6C"/>
<path d="M67.6103 372.99H46.2803C46.2803 372.19 47.9003 369.78 49.7403 367.94C50.2703 367.4 51.4603 366.12 52.5903 364.91C54.2403 365.71 56.4203 366.18 58.5303 366.29C61.9903 366.45 65.3103 365.68 66.0803 363.85C66.0803 363.85 66.0803 363.85 66.0903 363.87C66.9903 366.22 67.6003 368.98 67.6103 372.99Z" fill="#2E4A88"/>
<path d="M58.5405 366.29L56.9605 372.99H46.2905C46.2905 372.19 47.9105 369.78 49.7505 367.94C50.2805 367.4 51.4705 366.12 52.6005 364.91C54.2505 365.71 56.4205 366.17 58.5405 366.29Z" fill="#293D6C"/>
<path d="M249.58 181.77C248.94 184.98 249 185.95 249 185.95C249 185.95 210.58 168.48 205.78 165.68C200.99 162.88 192.75 146.59 192.75 146.59L197.3 144.55L207.3 140.07L212.9 152.29C212.9 152.29 234.16 168.9 251.1 175.14C250.37 178.02 249.89 180.17 249.58 181.77Z" fill="#FED2E2"/>
<path d="M249 185.95C249 185.95 210.58 168.48 205.78 165.68C200.99 162.88 192.75 146.59 192.75 146.59L197.3 144.55C199.36 148.65 204.5 158.64 206.85 161.28C209.39 164.11 238.64 179.4 249.58 181.77C248.94 184.98 249 185.95 249 185.95Z" fill="#FEB5C0"/>
<path d="M212.82 148.29C212.82 148.29 212.38 148.69 211.62 149.35C209.92 150.77 206.61 153.35 202.79 155.2C202.29 155.44 201.78 155.67 201.26 155.88C199.63 156.55 197.93 157.05 196.25 157.25C193.45 153 191.29 149.62 189.62 146.94C184.61 138.91 184.05 137.21 184.05 137.21L186.59 131.6L196.16 110.41C202.57 121.5 212.82 148.29 212.82 148.29Z" fill="#81B2F7"/>
<path d="M247.59 176.11C252.5 173.67 254.73 172.76 257.81 173.36C259.11 173.61 262.46 173.6 263.39 174.49C263.63 174.72 263.75 175.04 263.87 175.35C264.51 177.05 265.14 178.75 265.77 180.45C264.96 181.29 263.49 180.92 262.6 180.15C262.45 180.02 258.77 175.72 258.22 177.06C258.22 177.06 256.44 181.44 251.5 181.92C246.56 182.4 244.35 177.66 247.59 176.11Z" fill="#FED2E2"/>
<path d="M195.26 149L190.99 162.98L151.75 181.44L154.26 189.53C154.26 189.53 198.21 179.8 201.96 175.29C205.71 170.78 208.07 155.39 208.07 155.39L195.26 149Z" fill="#FEB5C0"/>
<path d="M207.19 163.96C207.98 162.04 210.1 156.57 211.36 150.67C213.33 141.45 203.23 122.77 203.23 122.77C199.04 128.89 194.18 143.61 191.36 152.7C195.61 158.42 200.9 161.32 207.19 163.96Z" fill="#D76E43"/>
<path d="M142.97 275.23C145.71 294.32 142.73 314.27 141.43 333.65C141.3 335.65 139.51 367.94 139.16 367.94H124.13V261.68C124.13 261.68 145.75 261.68 146.22 261.68C146.33 261.68 142.82 274.21 142.97 275.23Z" fill="#FED2E2"/>
<path d="M131.64 351.83C131.3 357.96 131 363.38 130.75 367.94H124.13V351.83H131.64Z" fill="#FEB5C0"/>
<path d="M182.92 261.67C182.92 261.69 182.92 367.94 182.92 367.94H167.9C167.21 357.54 166.52 347.15 165.82 336.75C165.19 327.28 164.56 317.8 163.93 308.33C163.37 299.94 161.39 290.3 162.65 282.08C163.75 274.85 161.2 268.78 160.82 261.64C162.88 261.69 182.92 261.67 182.92 261.67Z" fill="#FED2E2"/>
<path d="M192.17 370.08V372.99H165.78C165.36 366.29 165.54 360.72 167.08 357.65L182.8 357.23L192.17 370.08Z" fill="#1E407B"/>
<path d="M184.32 187.33L183.46 351.83H165.78L153.48 218.66L141.16 351.83H124.13L122.64 187.33H184.32Z" fill="#2E4A88"/>
<path d="M141.16 187.33C137.87 240.78 133.89 311.45 131.64 351.84H124.13L122.64 187.33H141.16Z" fill="#293D6E"/>
<path d="M153.48 218.66L144.49 209.18L162.97 210.52L174.39 351.83H165.78L153.48 218.66Z" fill="#293D6E"/>
<path d="M141.16 372.98H113.59V370.07L124.13 357.22L139.85 357.64C141.29 358.77 141.56 364.49 141.16 372.98Z" fill="#1E407B"/>
<path d="M196.13 113.18C196.08 117.03 195.56 123.79 194.81 132C194.28 137.72 193.61 144.16 192.92 150.77C192.23 156.99 191.53 163.39 190.82 169.53C190.05 176.27 189.29 182.7 188.64 188.28C187.32 199.34 186.36 207.03 186.36 207.03L140.2 203.36L122.5 201.95C122.5 201.95 122.79 194.28 123.26 183.07C123.49 177.49 123.77 171.05 124.09 164.22C124.36 158.1 124.68 151.69 125 145.36C125.34 138.87 125.05 136.1 125.42 130.18C125.86 122.93 126.1 119.18 126.53 114.14C127.05 108.26 127.57 104.37 128.05 103.66C129.66 101.24 140.44 94.4899 149.08 92.2099C152.4 91.3399 153.86 91.1698 157.33 91.1798C159.32 91.1798 161.27 91.2499 163.16 91.3999C164.32 91.4899 165.51 91.6699 166.71 91.9199C167.73 92.1299 168.76 92.3999 169.79 92.7099C171.98 93.3799 174.19 94.2499 176.33 95.2499C185.93 99.7199 194.55 106.89 195.91 109.88C196.09 110.29 196.17 111.43 196.13 113.18Z" fill="#90C4F4"/>
<path d="M169.78 92.7099C164.21 98.1499 147.88 114.16 146.3 116.19C145.58 117.12 143.04 155.74 140.18 203.36L122.48 201.95C122.48 201.95 122.77 194.28 123.24 183.07C123.47 177.49 123.75 171.05 124.07 164.22C124.34 158.1 124.66 151.69 124.98 145.36C125.32 138.87 125.03 136.1 125.4 130.18C125.84 122.93 126.08 119.18 126.51 114.14C127.03 108.26 127.55 104.37 128.03 103.66C129.64 101.24 140.42 94.4899 149.06 92.2099C152.38 91.3399 153.84 91.1698 157.31 91.1798C159.3 91.1798 161.25 91.2499 163.14 91.3999C164.3 91.4899 165.49 91.6699 166.69 91.9199C167.72 92.1299 168.75 92.3999 169.78 92.7099Z" fill="#81B2F7"/>
<path d="M176.28 95.4799C175.72 98.3699 173.86 102.33 170.11 106.44C169.96 106.6 169.79 106.79 169.63 106.96C169.6 106.98 169.57 107.02 169.55 107.04C165.42 111.39 158.99 111.36 155.13 107.14C154.76 106.73 154.41 106.3 154.1 105.82C150.53 100.42 149.48 95.6599 149.07 92.2099C151.21 91.7099 152.72 91.3099 154.14 91.0999L155.31 76.4199L172.94 77.8199L171.93 90.6099L171.72 93.2799C173.25 93.8999 174.78 94.6499 176.28 95.4799Z" fill="#FED2E2"/>
<path d="M172.94 77.8099L171.93 90.5999C171.74 90.7899 171.63 90.8999 171.63 90.8999C171.63 90.8999 162.46 99.8399 155.13 107.14C154.76 106.73 154.41 106.3 154.1 105.82C150.53 100.42 149.48 95.6599 149.07 92.2099C151.21 91.7099 152.72 91.3099 154.14 91.0999L155.31 76.4199L172.94 77.8099Z" fill="#FEC4CD"/>
<path d="M150.77 65.5899C147.28 65.1599 146.39 68.1499 146.58 69.8599C146.77 71.5699 148.57 75.2599 151.3 73.3799C152.18 66.3499 150.77 65.5899 150.77 65.5899Z" fill="#FEC4CD"/>
<path d="M179.62 67.8799C183.14 68.0099 183.53 71.0999 183.08 72.7599C182.63 74.4199 180.26 77.7699 177.87 75.4899C178.11 68.4199 179.62 67.8799 179.62 67.8799Z" fill="#FED2E2"/>
<path d="M180.17 68.6C179.21 78.9 173.46 88.37 163.54 87.58C162.29 87.48 161.14 87.23 160.08 86.85C152.64 84.22 149.5 75.23 150.12 66.21C150.7 57.79 152.93 51.77 158.36 49.33C160.57 48.33 163.31 47.93 166.67 48.2C178.33 49.12 181.08 58.81 180.17 68.6Z" fill="#FED2E2"/>
<path d="M160.08 86.85C152.64 84.22 149.5 75.23 150.12 66.21C150.7 57.79 152.93 51.77 158.36 49.33C158.41 49.8 158.45 50.13 158.45 50.13C158.45 50.13 156.2 70.68 156.46 75.63C156.67 79.59 157.96 83.4 160.08 86.85Z" fill="#FEC4CD"/>
<path d="M181.14 63.8499C180.9 65.2799 180.301 67.1199 179.991 68.8299C179.831 69.7299 179.74 70.5899 179.83 71.3399L178.73 61.8999C178.73 61.8999 176.95 60.7799 176.67 59.4099C176.08 56.6199 175.731 55.0499 175.711 55.0499C169.351 58.0199 156.08 53.8099 156.08 53.8099C156.08 53.8099 155.32 56.8599 154.79 58.3399C154.11 60.1899 152.22 60.5899 152.22 60.5899L150.021 68.9599C150.021 68.9599 148.73 56.9399 149.15 52.7299C149.31 51.0999 150.02 49.6399 151.8 49.2999C151.8 49.2999 151.79 49.2899 151.78 49.2599C151.17 47.8499 152.48 46.3399 153.76 45.4799C158.52 42.2799 164.55 41.4499 170.29 41.7199C172.2 41.8099 174.18 42.0299 175.84 42.9699C177.5 43.9199 178.79 45.7599 178.55 47.6599C180.46 47.8199 181.96 49.5699 182.43 51.4499C183.33 55.1299 181.76 60.1399 181.14 63.8499Z" fill="#684346"/>
<path d="M181.14 63.85C180.9 65.28 180.3 67.1199 179.99 68.8299C180.16 65.7199 180.42 60.46 180.34 57.6C180.2 53.37 179.11 50.0999 176.66 50.7399C174.67 44.1299 168.42 44.2199 162.26 45.5799C156.09 46.9299 153.11 51.0099 153.11 51.0099L151.81 49.3099C151.81 49.3099 151.8 49.2999 151.79 49.2699C151.18 47.8599 152.49 46.3499 153.77 45.4899C158.53 42.2899 164.56 41.4599 170.3 41.7299C172.21 41.8199 174.19 42.0399 175.85 42.9799C177.51 43.9299 178.8 45.7699 178.56 47.6699C180.47 47.8299 181.97 49.5799 182.44 51.4599C183.33 55.1299 181.76 60.14 181.14 63.85Z" fill="#784C4E"/>
<path d="M159.71 66.2899C159.67 66.7799 159.25 67.14 158.76 67.1C158.27 67.06 157.91 66.6399 157.95 66.1499C157.99 65.6599 158.41 65.2999 158.9 65.3399C159.38 65.3799 159.74 65.8099 159.71 66.2899Z" fill="#684346"/>
<path d="M172.51 67.31C172.47 67.8 172.05 68.16 171.56 68.12C171.07 68.08 170.71 67.66 170.75 67.17C170.79 66.68 171.21 66.32 171.7 66.36C172.19 66.4 172.55 66.83 172.51 67.31Z" fill="#684346"/>
<path d="M156.46 63.5499C157.49 62.5499 159.07 62.1599 160.45 62.5699" stroke="#684346" stroke-width="0.5" stroke-miterlimit="10"/>
<path d="M170.55 63.23C172.2 63.28 173.81 64.06 174.86 65.33" stroke="#684346" stroke-width="0.5" stroke-miterlimit="10"/>
<path d="M163.3 65.0599C163.68 65.2699 163.92 65.6699 164.03 66.0899C164.14 66.5099 164.15 66.9499 164.15 67.3799C164.15 68.1299 164.16 68.8699 164.16 69.6199" stroke="#FE8E9A" stroke-width="0.5" stroke-miterlimit="10"/>
<path d="M177.62 78.19C177.62 78.25 177.33 79.35 176.59 80.8V80.82C175.02 83.88 171.49 88.49 164.63 88.14C163.05 88.05 161.62 87.74 160.35 87.28C155.9 85.67 153.25 82.18 151.97 79.78C151.25 78.42 150.96 77.41 151.03 77.27C151.27 76.82 152.91 69.2 152.91 69.2C152.91 69.2 154.15 69.64 156.61 70.09C158.53 70.43 161.2 70.78 164.62 70.89C172.4 71.17 177.53 70.69 177.53 70.69C177.53 70.69 177.54 78.18 177.62 78.19Z" fill="#B4DAFF"/>
<path d="M160.35 87.2699C155.9 85.6599 153.25 82.1699 151.97 79.7699C151.25 78.4099 150.96 77.3999 151.03 77.2599C151.27 76.8099 152.91 69.1899 152.91 69.1899C152.91 69.1899 154.15 69.6299 156.61 70.0799C156.46 72.4699 156.39 74.4699 156.45 75.6199C156.67 79.7599 158.07 83.7199 160.35 87.2699Z" fill="#A0D0FF"/>
<path d="M153.92 70.9499L149.24 65.2799" stroke="#B4DAFF" stroke-width="0.5" stroke-miterlimit="10" stroke-linecap="round"/>
<path d="M175.79 72.7199L181.15 67.6799" stroke="#B4DAFF" stroke-width="0.5" stroke-miterlimit="10" stroke-linecap="round"/>
<path d="M128.03 103.65C120.23 113.09 116.65 125.75 110 144.05C115.51 147.99 118.5 149.84 124.89 151.65C125.04 148.65 128.03 103.65 128.03 103.65Z" fill="#81B2F7"/>
<path d="M139.45 189.86L134.7 191.6L128.4 193.9C128.4 193.9 113.92 170.03 110.99 166.34C108.06 162.65 108.56 159.18 108.95 155.97C109.47 151.62 111.08 144.83 111.08 144.83L124.89 151.66C124.89 151.66 125.09 156.64 124.66 157.1C124.62 157.16 124.57 157.16 124.52 157.1C124.38 156.97 124.38 157.1 124.49 157.45C125.64 161.15 139.45 189.86 139.45 189.86Z" fill="#FEC4CD"/>
<path d="M124.52 157.09H124.66C124.63 157.15 124.58 157.15 124.52 157.09Z" fill="#FEB5C0"/>
<path d="M139.45 189.86L134.7 191.6C131.08 182.35 125.48 167.69 124.77 167.18C123.86 166.52 124.35 159.14 124.48 157.45C125.64 161.15 139.45 189.86 139.45 189.86Z" fill="#FED2E2"/>
<path d="M290.871 282.2C293.421 299.92 290.651 318.43 289.451 336.43C289.401 337.29 289.021 343.99 288.601 351.02C288.561 351.61 288.521 352.19 288.491 352.78C288.011 360.6 287.491 368.26 287.331 368.26H274.901L274.521 343.87L273.391 269.62C273.391 269.62 293.451 269.62 293.901 269.62C293.991 269.62 290.741 281.25 290.871 282.2Z" fill="#FED2E2"/>
<path d="M288.6 351.02C288.56 351.61 288.52 352.19 288.49 352.78L281.21 355.72C281.21 355.72 280.92 362.95 280.57 368.26H274.89L274.51 343.87C277.28 343.19 280.6 342.66 282.84 343.2C286.14 344 287.89 348.57 288.6 351.02Z" fill="#FEC4CD"/>
<path d="M326.29 269.47C326.29 269.48 326.26 308.57 326.24 337.58C326.24 343.08 326.24 348.22 326.23 352.67C326.23 362.04 326.22 368.3 326.22 368.3L319.19 368.31L313.81 368.32C313.03 358.68 312.24 349.04 311.45 339.4C311.3 337.44 311.13 335.49 310.97 333.52C310.42 326.7 309.87 319.86 309.31 313.04C308.67 305.27 306.71 296.34 307.75 288.69C308.68 281.97 306.22 276.37 305.78 269.75C307.7 269.76 326.29 269.46 326.29 269.47Z" fill="#FED2E2"/>
<path d="M319.09 356.08C319.31 356.3 319.26 363.09 319.2 368.3L313.82 368.31C313.04 358.67 312.25 349.03 311.46 339.39C311.31 337.43 311.14 335.48 310.98 333.51C312.72 333.13 314.92 333.2 317.74 333.97C321.39 334.97 324.18 336.25 326.25 337.57C326.25 343.07 326.25 348.21 326.24 352.66C326.24 352.66 318.73 355.72 319.09 356.08Z" fill="#FEC4CD"/>
<path d="M308.88 372.94H336.7V370.24L326.23 358.31L311.64 358.7L308.88 372.94Z" fill="#2E4A88"/>
<path d="M319.09 358.5L322.79 367.55V372.94H308.88L311.64 358.7L319.09 358.5Z" fill="#1E407B"/>
<path d="M300.43 199.88H271.8L273.19 352.58H288.99L300.43 228.96L311.84 352.58H328.25L329.05 199.88H300.43Z" fill="#2E4A88"/>
<path d="M300.431 228.96L292.721 224.94H309.771L319.091 352.58H311.841L300.431 228.96Z" fill="#1E407B"/>
<path d="M279.95 352.58L287.22 217.23L328.97 215.52L329.05 199.88H271.8L273.19 352.58H279.95Z" fill="#1E407B"/>
<path d="M291.651 372.94H263.831V370.24L274.301 358.31L281.551 358.5L288.891 358.7L291.651 372.94Z" fill="#2E4A88"/>
<path d="M277.751 368.26L280.491 372.94H263.831V370.24L274.301 358.3L281.561 358.49C281.571 358.5 281.571 358.5 281.571 358.5L277.751 368.26Z" fill="#1E407B"/>
<path d="M332.51 147.01C332.43 152.35 332.3 158.35 332.13 164.51C331.97 170.33 331.78 176.29 331.58 182.03C331.36 188.31 331.14 194.33 330.93 199.53C330.52 209.86 330.21 217.04 330.21 217.04H270.75C270.75 217.04 270.45 209.92 270.06 199.53C269.87 194.35 269.65 188.36 269.43 182.03C269.24 176.35 269.06 170.39 268.89 164.51C268.73 158.48 268.26 155.95 268.17 150.43C268.03 143.69 267.98 140.2 268.01 135.51C268.07 130.03 268.26 126.4 268.65 125.7C269.96 123.35 279.44 116.31 287.26 113.56C290.27 112.51 291.61 112.25 294.82 111.99C296.67 111.84 298.47 111.76 300.23 111.76C301.01 111.76 301.82 111.81 302.64 111.89C302.94 111.92 303.25 111.96 303.56 112C306.57 112.38 309.69 113.24 312.71 114.37C321.92 117.81 330.43 123.8 331.9 126.47C332.1 126.83 332.26 127.88 332.34 129.5C332.59 133.07 332.6 139.37 332.51 147.01Z" fill="#5078C9"/>
<path d="M330.24 167.57L306.52 184.53L310.04 190.74L300.28 194.41L278.26 190.2V217.05H299.97V207.51L331.09 195.56L330.24 167.57Z" fill="#3A67BB"/>
<path d="M302.63 111.89C300.13 114.39 298.01 116.45 298.01 116.45C298.01 116.45 286.39 127.56 283.96 132.4C281.96 136.35 284.7 195.64 285.77 217.05H270.75C270.75 217.05 270.45 209.93 270.06 199.54C269.87 194.36 269.65 188.37 269.43 182.04C269.24 176.36 269.06 170.4 268.89 164.52C268.73 158.49 268.26 155.96 268.17 150.44C268.03 143.7 267.98 140.21 268.01 135.52C268.07 130.04 268.26 126.41 268.65 125.71C269.96 123.36 279.44 116.32 287.26 113.57C290.27 112.52 291.61 112.26 294.82 112C296.67 111.85 298.47 111.77 300.23 111.77C301.01 111.77 301.81 111.81 302.63 111.89Z" fill="#3A67BB"/>
<path d="M312.68 114.59C312.38 117.31 310.95 121.11 307.78 125.18C307.64 125.34 307.52 125.53 307.37 125.7C307.34 125.73 307.32 125.76 307.3 125.78C303.46 130.53 296.68 130.6 292.91 125.78C292.26 124.96 291.69 124.15 291.2 123.34C288.76 119.57 287.78 116.17 287.26 113.56C289.64 112.8 291.16 112.25 292.75 111.97C292.81 111.96 292.86 111.96 292.92 111.95C294.98 111.69 297.02 111.53 299 111.49H299.19C299.56 111.46 299.91 111.46 300.27 111.46C301.13 111.46 302 111.52 302.88 111.63C306.09 112.04 309.46 113.13 312.68 114.59Z" fill="#FED2E2"/>
<path d="M302.891 111.64C300.281 114.25 298.021 116.45 298.021 116.45C298.021 116.45 294.691 119.64 291.211 123.34C288.771 119.57 287.791 116.17 287.271 113.56C289.651 112.8 291.171 112.25 292.761 111.97C292.821 111.96 292.871 111.96 292.931 111.95C294.991 111.69 297.031 111.53 299.011 111.49H299.201C299.571 111.46 299.921 111.46 300.281 111.46C301.141 111.47 302.011 111.52 302.891 111.64Z" fill="#FEC4CD"/>
<path d="M308.29 98.4899H291.88V118.82H308.29V98.4899Z" fill="#FED2E2"/>
<path d="M308.29 106.1C304.6 110.04 298.02 116.45 298.02 116.45C298.02 116.45 297.05 117.38 295.61 118.81H291.88V102.49L308.29 106.1Z" fill="#FEC4CD"/>
<path d="M284.931 88.33C281.411 88.43 280.991 91.5199 281.431 93.1799C281.871 94.8399 284.211 98.21 286.621 95.95C286.441 88.87 284.931 88.33 284.931 88.33Z" fill="#FEC4CD"/>
<path d="M313.801 86.24C317.301 85.83 318.161 88.83 317.961 90.54C317.761 92.25 315.931 95.92 313.221 94.02C312.391 86.99 313.801 86.24 313.801 86.24Z" fill="#FED2E2"/>
<path d="M300.881 108.14C298.891 108.28 297.061 108.01 295.421 107.41C288.861 105.01 285.071 97.2799 284.381 89.0499C283.411 77.4699 286.24 69.8999 297.3 68.7999C297.53 68.7699 297.781 68.7499 298.021 68.7299C309.691 67.8799 313.871 77.0499 314.451 86.8599C315.061 97.1899 310.801 107.43 300.881 108.14Z" fill="#FED2E2"/>
<path d="M296.141 76.4699C292.271 78.1499 290.241 78.9699 290.241 78.9699C290.241 78.9699 290.381 92.8599 290.241 96.0799C290.121 98.6799 292.811 104.12 295.411 107.41C288.851 105.01 285.061 97.2799 284.371 89.0499C283.401 77.4699 286.231 69.8999 297.291 68.7999C298.401 68.9799 299.131 69.4599 299.351 70.3099C300.251 73.6899 296.141 76.4699 296.141 76.4699Z" fill="#FEC4CD"/>
<path d="M314.69 82.0199C314.67 84.2199 313.94 87.4899 314.53 89.6299L314.26 88.6299L312.02 80.4599C312.02 80.4599 310.09 79.6199 309.6 78.2999C308.6 75.6399 308.02 74.1399 308 74.1399C302.16 78.0299 288.41 75.8799 288.41 75.8799C288.41 75.8799 288.12 79.0199 287.82 80.5599C287.43 82.4799 285.63 83.1699 285.63 83.1699L284.72 91.7799C284.72 91.7799 284.09 89.3899 283.38 86.3799C282.51 82.7399 281.52 78.1799 281.4 75.8699C281.31 74.2299 281.8 72.6799 283.5 72.0699C282.65 70.7699 283.71 69.0599 284.86 68.0099C289.09 64.1199 294.92 62.3799 300.64 61.7899C302.53 61.5899 304.52 61.5099 306.3 62.1899C308.09 62.8799 309.63 64.5099 309.68 66.4099C311.6 66.2799 313.34 67.7899 314.09 69.5699C315.54 73.0699 314.73 78.2599 314.69 82.0199Z" fill="#E5EEFF"/>
<path d="M314.251 88.6299L312.011 80.4599C312.011 80.4599 310.081 79.6199 309.591 78.2999C308.591 75.6399 308.011 74.1399 307.991 74.1399C302.151 78.0299 288.401 75.8799 288.401 75.8799C288.401 75.8799 288.111 79.0199 287.811 80.5599C287.421 82.4799 285.621 83.1699 285.621 83.1699L284.711 91.7799C284.711 91.7799 284.081 89.3899 283.371 86.3799C283.361 82.9599 283.521 79.2799 283.971 77.1699C284.961 72.4299 286.641 72.9699 286.641 72.9699L293.001 73.4499L290.261 70.9399C290.261 70.9399 304.611 73.6899 308.731 70.3099C308.611 74.2899 312.941 78.1599 313.391 78.9799C313.821 79.7899 314.251 88.6299 314.251 88.6299Z" fill="#DAE7FF"/>
<path d="M293.871 87.6799C293.911 88.1699 293.541 88.5899 293.051 88.6299C292.561 88.6699 292.141 88.2999 292.101 87.8099C292.061 87.3199 292.431 86.8999 292.921 86.8599C293.411 86.8199 293.841 87.1899 293.871 87.6799Z" fill="#684346"/>
<path d="M306.681 86.7499C306.721 87.2399 306.351 87.6599 305.861 87.6999C305.371 87.7399 304.951 87.3699 304.911 86.8799C304.871 86.3899 305.241 85.9698 305.731 85.9298C306.231 85.8998 306.651 86.2599 306.681 86.7499Z" fill="#684346"/>
<path d="M290.25 85.4498C291.12 84.3098 292.62 83.6899 294.04 83.8799" stroke="#684346" stroke-width="0.5" stroke-miterlimit="10"/>
<path d="M304.13 83.0099C305.77 82.8099 307.48 83.3399 308.71 84.4299" stroke="#684346" stroke-width="0.5" stroke-miterlimit="10"/>
<path d="M297.241 85.9099C297.641 86.0599 297.941 86.4199 298.121 86.8199C298.301 87.2199 298.371 87.6499 298.431 88.0799C298.551 88.8199 298.661 89.5499 298.781 90.2899" stroke="#FE8E9A" stroke-width="0.5" stroke-miterlimit="10"/>
<path d="M289.171 92.4999L283.451 87.8799C283.351 87.7999 283.191 87.8099 283.111 87.9199C283.031 88.0199 283.041 88.1799 283.151 88.2599L288.871 92.8799C288.971 92.9599 289.131 92.9499 289.211 92.8399C289.291 92.7399 289.271 92.5899 289.171 92.4999Z" fill="#A0D0FF"/>
<path d="M310.28 91.4198L315.06 85.8298" stroke="#B4DAFF" stroke-width="0.5" stroke-miterlimit="10" stroke-linecap="round"/>
<path d="M312.75 99.4699C311.66 102.75 308.86 107.84 302.03 108.52C299.65 108.75 297.55 108.43 295.73 107.79C292.14 106.52 289.64 104.04 288.25 102.17C287.33 100.93 286.91 99.9799 286.95 99.8299C287.11 99.3499 287.59 91.5699 287.59 91.5699C287.59 91.5699 288.51 91.7499 290.3 91.8399C292.29 91.9499 295.35 91.9499 299.42 91.4699C307.16 90.5699 312.16 89.3199 312.16 89.3199C312.16 89.3199 313.3 96.7199 313.37 96.7199C313.39 96.7099 313.27 97.8699 312.75 99.4699Z" fill="#B4DAFF"/>
<path d="M295.73 107.78C292.14 106.51 289.64 104.03 288.25 102.16C287.33 100.92 286.91 99.9699 286.95 99.8199C287.11 99.3399 287.59 91.5599 287.59 91.5599C287.59 91.5599 288.51 91.7399 290.3 91.8299C290.3 93.6799 290.28 95.2299 290.24 96.0699C290.12 98.7799 293.03 104.56 295.73 107.78Z" fill="#A0D0FF"/>
<path d="M309.221 194.41H292.711H291.641C290.001 194.41 288.681 195.74 288.681 197.37C288.681 199.01 290.011 200.33 291.641 200.33H292.711H293.871C295.381 200.33 296.611 201.56 296.611 203.07V372.98H302.031V203.07C302.031 201.56 303.261 200.33 304.771 200.33H309.221C310.861 200.33 312.181 199 312.181 197.37C312.181 195.73 310.851 194.41 309.221 194.41Z" fill="#293D6E"/>
<path d="M308.61 187.02C303.73 189.35 297.69 189.03 293.36 192.28C290.4 194.5 288.75 198.03 287.38 201.46C287.24 201.8 287.12 202.23 287.35 202.51C287.71 202.96 288.43 202.57 288.84 202.16C290.35 200.67 291.75 199.06 293.03 197.36C291.86 199.41 291.36 201.83 291.61 204.18C291.91 204.53 292.46 204.15 292.74 203.78C294.06 202.02 295.19 200.11 296.09 198.1C295.25 200.47 294.83 202.98 294.86 205.5C295.6 205.93 296.36 204.98 296.7 204.19C297.46 202.41 298.22 200.64 298.98 198.86C298.62 200.64 298.47 202.45 298.53 204.26C298.55 204.75 298.79 205.41 299.26 205.29C299.49 205.23 299.62 205.01 299.73 204.8C300.65 202.98 301.34 201.04 301.77 199.05C303.63 198.88 305.32 197.82 306.61 196.47C307.9 195.12 308.84 193.48 309.78 191.85L308.61 187.02Z" fill="#FEB5C0"/>
<path d="M347.981 179.96C347.501 185.93 309.241 197.83 309.241 197.83L308.391 192.61L307.331 186.13L330.091 171.21L331.901 126.46C339.091 134.58 346.131 163.72 347.681 175.63C347.941 177.61 348.051 179.11 347.981 179.96Z" fill="#5078C9"/>
<path d="M331.901 126.47L337.501 167.57L330.101 171.21L331.901 126.47Z" fill="#436EBE"/>
<path d="M347.981 179.96C347.501 185.93 309.241 197.83 309.241 197.83L308.391 192.61C318.631 189.22 347.931 179.2 347.681 175.63C347.941 177.61 348.051 179.11 347.981 179.96Z" fill="#436EBE"/>
<path d="M292.72 184.43L292.59 185.31L292.03 189.36L291.6 192.43L291.03 196.67C291.03 196.67 253.03 185.16 252.55 179.2C252.07 173.24 260.23 135.17 268.63 125.7L269.64 170.84L292.72 184.43Z" fill="#436EBE"/>
<path d="M292.721 184.43L292.591 185.31L292.031 189.36L262.161 173.94L268.641 125.7L269.661 170.84L292.721 184.43Z" fill="#5078C9"/>
<path d="M251.78 81.99C252.71 83.51 253.06 85.39 252.74 87.14C252.26 89.74 250.52 91.82 249.69 94.28C248.68 97.28 249.92 98.95 251.21 101.61C251.56 102.34 251.92 103.08 252.11 103.86C252.63 105.97 251.89 108.24 250.62 110C249.35 111.77 247.6 113.11 245.83 114.39C245.58 114.57 245.28 114.76 244.98 114.7C244.74 114.65 244.57 114.44 244.41 114.25C243.02 112.53 241.66 110.17 239.78 109.04C238.91 108.51 234.83 107.6 234.83 106.15C232.85 104.01 232.14 100.94 232.27 98.02C232.41 95.11 233.3 92.29 234.19 89.51L251.78 81.99Z" fill="#FF7F42"/>
<path d="M248.94 362.12C248.86 361.17 246.67 343.3 246.67 343.3C246.67 343.3 256.8 342.92 257.33 343.6C257.86 344.28 259.13 362.12 259.13 362.12H248.94Z" fill="#FED2E2"/>
<path d="M219.22 362.12C219.3 361.17 221.49 343.3 221.49 343.3C221.49 343.3 211.36 342.92 210.83 343.6C210.3 344.28 209.03 362.12 209.03 362.12H219.22Z" fill="#FED2E2"/>
<path d="M262.16 221.92C262.18 225.66 262.1 229.78 261.91 234.19C261.7 239.01 261.4 243.69 261.05 248.17C260.96 249.31 260.87 250.43 260.78 251.55C259.68 265.08 258.42 276.45 258.85 283.29C259.47 292.9 259.98 358.48 259.98 358.48H245.46C245.46 358.48 239.27 301.49 241.11 289.81C242.38 281.71 236.35 256.1 233.77 231.75C231.18 256.1 225.16 281.71 226.42 289.81C228.26 301.49 222.08 358.48 222.08 358.48H207.56C207.56 358.48 208.07 292.89 208.68 283.29C209.11 276.45 207.85 265.08 206.75 251.55C206.66 250.43 206.57 249.31 206.48 248.17C206.14 243.7 205.83 239.02 205.62 234.19C205.43 229.77 205.36 225.66 205.37 221.92C205.42 207.89 206.61 198.96 206.85 198.14H260.67C260.92 198.95 262.11 207.88 262.16 221.92Z" fill="#2E4A88"/>
<path d="M252.32 358.31L252.04 358.48H245.46C245.46 358.48 239.27 301.49 241.11 289.81C242.38 281.71 236.35 256.1 233.77 231.75C231.18 256.1 225.16 281.71 226.42 289.81C228.26 301.49 222.08 358.48 222.08 358.48H207.56C207.56 358.48 208.07 292.89 208.68 283.29C209.11 276.45 207.85 265.08 206.75 251.55C206.66 250.43 206.57 249.31 206.48 248.17C206.14 243.7 205.83 239.02 205.62 234.19C205.43 229.77 205.36 225.66 205.37 221.92C205.42 207.89 206.61 198.96 206.85 198.14H260.67C260.67 198.14 248.41 227.6 248.53 228.67C248.65 229.75 247.32 241 249.57 252.33C251.81 263.65 246.59 272.9 246.42 289.69C246.25 306.49 252.32 358.31 252.32 358.31Z" fill="#293D6E"/>
<path d="M226.43 289.81C228.27 301.49 222.09 358.48 222.09 358.48H217.51C217.23 358.36 217.07 358.31 217.07 358.31C217.24 356.99 221.17 296.46 221.92 291.39C222.68 286.32 221.37 283.55 221.49 281.13C221.6 278.7 229.06 239.74 229.06 239.74L233.78 231.76C231.18 256.1 225.16 281.71 226.43 289.81Z" fill="#2E4A88"/>
<path d="M259.14 362.12C259.14 362.12 263.38 366.77 264.55 367.94C266.38 369.77 268 372.18 268 372.98H246.68C246.69 367.94 247.64 364.9 248.95 362.12H259.14Z" fill="#FED2E2"/>
<path d="M246.67 372.99H268C268 372.19 266.38 369.78 264.54 367.94C264.01 367.4 262.82 366.13 261.69 364.9C257.34 367.01 249.43 366.8 248.2 363.85C248.2 363.85 248.2 363.85 248.19 363.86C247.29 366.23 246.69 368.98 246.67 372.99Z" fill="#1E407B"/>
<path d="M209.02 362.12C209.02 362.12 204.78 366.77 203.61 367.94C201.78 369.77 200.16 372.18 200.16 372.98H221.48C221.47 367.94 220.52 364.9 219.21 362.12H209.02Z" fill="#FED2E2"/>
<path d="M221.48 372.99H200.16C200.16 372.19 201.78 369.78 203.62 367.94C204.15 367.4 205.34 366.13 206.47 364.9C210.82 367.01 218.73 366.8 219.96 363.85C219.96 363.85 219.96 363.85 219.97 363.86C220.87 366.23 221.47 368.98 221.48 372.99Z" fill="#293D6E"/>
<path d="M257.25 166.53C257.65 175.04 260.23 185.43 260.96 198.14H206.88C207.61 185.43 210.19 175.04 210.58 166.53C211.11 155.08 199.42 144.99 201.2 126.95C201.39 125.01 202.5 123.35 204.14 121.89C208.68 117.81 217.27 115.24 221.56 112.51C222.22 112.1 222.77 111.68 223.19 111.25C227.39 106.99 225.36 96.09 225.36 96.09L233.92 99.89L242.47 96.09C242.47 96.09 240.44 106.99 244.64 111.25C244.72 111.34 244.81 111.41 244.9 111.49C245.85 112.35 247.3 113.16 248.99 113.99C255.56 117.21 266 120.62 266.63 126.95C268.41 144.98 256.72 155.07 257.25 166.53Z" fill="#FED2E2"/>
<path d="M244.91 111.49C242.75 115.32 235.14 128.44 227.61 137.18C218.7 147.51 215.45 152.12 212.82 145.65C211.39 142.14 207.5 131.69 204.13 121.89C208.67 117.81 217.26 115.24 221.55 112.51C222.21 112.1 222.76 111.68 223.18 111.25C227.38 106.99 225.35 96.09 225.35 96.09L233.91 99.89L242.46 96.09C242.46 96.09 240.43 106.99 244.63 111.25C244.72 111.33 244.82 111.41 244.91 111.49Z" fill="#FEC4CD"/>
<path d="M257.25 166.53C257.65 175.04 260.23 185.43 260.96 198.14H206.88C207.61 185.43 210.19 175.04 210.58 166.53C211.11 155.08 199.42 144.99 201.2 126.95C201.92 119.63 215.72 116.22 221.55 112.5C221.44 123.79 226.5 129.87 232.25 131.13C239.46 132.72 247.78 126.74 248.38 113.97C248.58 113.98 248.8 113.98 249 113.99C255.57 117.21 266.01 120.62 266.64 126.95C268.41 144.98 256.72 155.07 257.25 166.53Z" fill="#FF7F51"/>
<path d="M235.2 162.21C226.12 162.36 224.14 166.14 224.05 176.94C224 182 224.78 190.52 225.63 198.14H206.88C207.61 185.43 210.19 175.04 210.58 166.53C211.11 155.08 199.42 144.99 201.2 126.95C201.92 119.63 215.72 116.22 221.55 112.5C221.44 123.79 226.5 129.87 232.25 131.13C232.26 131.23 232.27 131.28 232.27 131.28C232.27 131.28 221.25 145.21 219.98 147.26C218.7 149.32 223.35 154.27 226.47 155.33C229.59 156.38 231.72 153.31 234.82 153.31C237.92 153.31 243.41 156.3 248.55 157.25C253.67 158.2 244.28 162.05 235.2 162.21Z" fill="#D76E43"/>
<path d="M216.11 95.8499C215.48 96.8199 215.86 98.1899 216.44 99.1999C217.02 100.2 217.81 101.13 218 102.3C218.27 103.96 217.03 102.73 216.18 104.13C214.97 106.11 214.15 111.27 214.63 113.6C215.27 116.75 218.3 118.4 220.99 119.63C219.68 118.24 219.76 115.82 220.56 114.01C221.36 112.2 222.71 110.8 223.82 109.21C224.93 107.62 225.83 105.63 225.48 103.66C225.23 102.27 224.39 101.11 223.58 100.01C222.38 98.3899 221.19 96.7699 219.99 95.1499C219.62 94.6499 219.19 94.1199 218.61 94.0599L216.11 95.8499Z" fill="#FF9D42"/>
<path d="M249.32 82.77C249.24 89.59 246.37 96.22 242 99.95C239.75 101.86 237.1 103.01 234.24 103.01C232.93 103.01 231.64 102.74 230.41 102.25C224.16 99.75 219.28 91.42 219.16 82.77C219.03 72.94 222.53 63.5 234.24 63.5C245.94 63.5 249.45 70.91 249.32 82.77Z" fill="#FED2E2"/>
<path d="M233.12 88.65C233.12 86.66 233.07 84.37 232.55 83.22" stroke="#FE8E9A" stroke-width="0.5" stroke-miterlimit="10"/>
<path d="M249.32 82.77C249.24 89.59 246.37 96.22 242 99.95C241.54 98 241.16 95.59 241.48 93.35C242.12 88.74 245.75 84.69 245.51 79.97C245.27 75.24 245.23 73.93 243.44 72.71C241.65 71.5 236.95 69.43 236.28 65.27C230.62 73.84 226.91 74.78 224.61 76.7C222.32 78.62 225.21 85.12 225.54 86.8C225.88 88.48 225.04 90.42 224.88 91.84C224.75 93.04 227.05 99.1 230.41 102.25C224.16 99.75 219.28 91.42 219.16 82.77C219.03 72.94 222.53 63.5 234.24 63.5C245.94 63.5 249.45 70.91 249.32 82.77Z" fill="#FEC4CD"/>
<path d="M247.95 95.33C247.95 95.33 246.16 99.09 242.45 101.63C240.55 102.94 238.14 103.94 235.2 103.94C234.18 103.94 233.2 103.82 232.27 103.61C232.27 103.6 232.26 103.6 232.26 103.6C225.35 102.01 221.16 95.33 221.16 95.33C222.16 91.44 223.39 87.64 223.39 87.64C224.11 87.92 224.84 88.18 225.56 88.41C232.32 90.57 238.63 90.45 243.09 88.33C243.97 87.91 244.77 87.42 245.5 86.86C247.95 92.56 247.95 95.33 247.95 95.33Z" fill="#B4DAFF"/>
<path d="M225.08 89.6399L220.39 83.9699C220.3 83.8699 220.15 83.8499 220.05 83.9399C219.95 84.0299 219.93 84.1799 220.02 84.2799L224.71 89.9499C224.8 90.0499 224.95 90.0699 225.05 89.9799C225.15 89.8999 225.16 89.7499 225.08 89.6399Z" fill="#A0D0FF"/>
<path d="M232.26 103.6C225.35 102.01 221.16 95.3299 221.16 95.3299C222.16 91.4399 223.39 87.6399 223.39 87.6399C224.11 87.9199 224.84 88.1799 225.56 88.4099C225.42 89.6399 224.98 90.8699 224.87 91.8499C224.74 93.2599 227.94 101.38 232.26 103.6Z" fill="#A0D0FF"/>
<path d="M244.03 89.4799L248.72 83.8099C248.8 83.7099 248.79 83.55 248.69 83.47C248.59 83.38 248.43 83.3999 248.35 83.4999L243.66 89.1699C243.57 89.2699 243.59 89.4299 243.69 89.5099C243.79 89.5899 243.95 89.5799 244.03 89.4799Z" fill="#A0D0FF"/>
<path d="M247.95 95.33C247.95 95.33 246.16 99.09 242.45 101.63C241.84 99.51 241.07 96.29 241.48 93.36C241.72 91.63 242.38 89.98 243.1 88.33C243.98 87.91 244.78 87.42 245.51 86.86C247.95 92.56 247.95 95.33 247.95 95.33Z" fill="#A0D0FF"/>
<path d="M227.44 85.1499C227.981 85.1499 228.42 84.7112 228.42 84.1699C228.42 83.6287 227.981 83.1899 227.44 83.1899C226.899 83.1899 226.46 83.6287 226.46 84.1699C226.46 84.7112 226.899 85.1499 227.44 85.1499Z" fill="#684346"/>
<path d="M240.5 85.1499C241.041 85.1499 241.48 84.7112 241.48 84.1699C241.48 83.6287 241.041 83.1899 240.5 83.1899C239.959 83.1899 239.52 83.6287 239.52 84.1699C239.52 84.7112 239.959 85.1499 240.5 85.1499Z" fill="#684346"/>
<path d="M224.05 80.98C226.63 79.85 229.65 80.64 229.58 79.53C229.52 78.42 225.36 79.01 224.05 80.98Z" fill="#684346"/>
<path d="M244.25 80.98C241.67 79.85 238.65 80.64 238.72 79.53C238.78 78.42 242.94 79.01 244.25 80.98Z" fill="#684346"/>
<path d="M252.96 95.07C252.47 95.92 252.08 96.82 252.1 97.81C252.12 99.29 253.02 100.56 253.37 101.99C253.9 104.18 253.1 106.52 251.97 108.43C250.84 110.32 249.38 111.98 248.38 113.96C247.37 115.95 246.88 118.47 247.85 120.47C247.59 120.34 247.37 120.19 247.14 120.01C246.12 119.18 245.48 117.81 245.24 116.37C244.23 119.76 244.68 123.54 245.71 126.94C241.77 122.21 241.88 114.59 244.48 108.83C245.33 106.94 246.44 105.06 246.66 103.01C246.7 102.71 246.72 102.4 246.71 102.09C246.71 101.8 246.68 101.51 246.63 101.23C246.59 100.92 246.52 100.63 246.45 100.32C246.11 98.92 245.47 97.56 245.15 96.13C244.75 94.37 244.81 92.47 245.34 90.75C245.78 89.28 246.56 87.98 247.01 86.52C248 83.34 247.4 79.84 246.72 76.55C246.44 75.15 246.12 73.69 245.28 72.58C243.82 70.64 241.27 70.36 239.35 69.03C237.52 67.78 235.57 64.8099 235.26 62.0099C235.09 60.5599 235.35 59.16 236.28 58.07C239.26 54.58 243.8 58.79 245.99 61.31C249.75 65.65 252.82 71.66 254.33 77.44C254.93 79.78 255.52 82.26 255.73 84.7C255.74 84.73 255.74 84.7399 255.73 84.7599C255.97 87.5999 255.7 90.3799 254.38 92.7599C253.95 93.5499 253.4 94.29 252.96 95.07Z" fill="#FF9D42"/>
<path d="M246.84 93.47C246.11 96.59 247.21 97.61 246.68 103.02C246.68 103.02 246.68 103.02 246.67 103.02C246.71 102.72 246.73 102.41 246.72 102.1C246.72 101.81 246.69 101.52 246.64 101.24C246.6 100.93 246.53 100.64 246.46 100.33C246.12 98.93 245.48 97.57 245.16 96.14C244.76 94.38 244.82 92.48 245.35 90.76C245.79 89.29 246.57 87.99 247.02 86.53C248.01 83.35 247.41 79.85 246.73 76.56C246.45 75.16 246.13 73.7 245.29 72.59C243.83 70.65 241.28 70.37 239.36 69.04C237.53 67.79 235.58 64.82 235.27 62.02C235.4 61.73 235.51 61.44 235.62 61.13C236.35 65.6 243.12 67.9 246.2 69.73C249.29 71.57 249.76 76.59 250.19 81.99C250.62 87.39 247.57 90.36 246.84 93.47Z" fill="#FF8C42"/>
<path d="M253.36 102C253.9 104.2 253.09 106.54 251.96 108.44C250.83 110.33 249.38 111.99 248.37 113.97C247.37 115.96 246.88 118.48 247.84 120.49C247.58 120.36 247.35 120.21 247.13 120.03C246.6 117.25 246.78 114.34 247.62 111.64C248.07 110.16 248.71 108.75 249.56 107.46C250.13 106.6 250.78 105.75 251.04 104.75C251.61 102.54 248.61 101.7 248.17 99.8999C247.5 97.1999 251.93 96.83 252.96 95.08C252.46 95.93 252.07 96.83 252.1 97.83C252.11 99.3 253.01 100.57 253.36 102Z" fill="#FF8C42"/>
<path d="M236.68 63.53C236.54 65.68 236.12 67.76 234.98 69.79C233.9 71.71 231.8 73.46 229.86 74.19C227.98 74.9 225.87 74.84 224.05 75.79C223.41 76.12 222.84 76.6 222.36 77.16C220.38 79.48 219.84 83.35 221.43 86.05C222.15 87.28 223.28 88.45 223.11 90.01C222.91 91.87 221.9 92.74 222.86 94.78C223.58 96.36 224.86 97.52 226 98.76C227.13 100.02 228.18 101.54 228.26 103.32C228.33 104.88 227.63 106.29 226.79 107.56C226.69 107.57 226.61 107.6 226.52 107.61C226.35 108.01 226.13 108.41 225.9 108.8C225.73 109.03 225.56 109.25 225.4 109.48C225.39 109.49 225.39 109.51 225.37 109.51C224.07 111.08 221.67 112.33 218.82 113.48C217.53 113.98 216.14 114.47 214.72 114.94C214.68 112.4 215.46 109.7 217.07 107.87C218.44 106.28 219.33 104.91 219.19 103.02C219.16 102.38 218.99 101.69 218.68 100.89C217.97 99.03 216.74 97.52 215.57 95.98C214.4 94.44 213.26 92.81 212.77 90.89C211.66 86.48 214.09 81.09 215.05 76.82C216.48 70.39 219.88 64.28 224.76 60.44C228.19 57.74 232.76 56.81 236.74 58.27C236.74 60.06 236.8 61.81 236.68 63.53Z" fill="#FF9D42"/>
<path d="M228.27 103.34C228.33 104.9 227.64 106.31 226.79 107.58C226.7 107.59 226.61 107.62 226.52 107.63C226.35 108.03 226.13 108.43 225.9 108.81C225.73 109.04 225.57 109.27 225.4 109.49C225.39 109.5 225.39 109.52 225.37 109.52C224.06 111.09 221.67 112.35 218.81 113.49C218.85 113.08 218.94 112.68 219.07 112.29C219.64 110.61 220.84 109.23 221.78 107.73C222.72 106.23 223.41 104.36 222.8 102.7C221.93 100.33 218.7 99.2299 218.33 96.7399C217.97 94.2599 220.7 91.9299 219.9 89.5499C219.51 88.4299 218.45 87.6999 217.78 86.7199C216.29 84.5299 217.14 81.3899 218.98 79.4799C219.94 78.4899 221.11 77.7599 222.36 77.1499C220.38 79.4599 219.84 83.3299 221.43 86.0499C222.15 87.2699 223.28 88.4399 223.11 90.0099C222.9 91.8599 221.9 92.7399 222.85 94.7799C223.58 96.3599 224.86 97.5199 226 98.7599C227.14 100.03 228.19 101.56 228.27 103.34Z" fill="#FF8C42"/>
<path d="M200.83 285.13C200.78 285.1 200.74 285.09 200.7 285.06C200.89 278.7 201.87 273.62 202.5 267.29C202.81 264.2 203.15 259.88 203.07 256.78C203.03 255.24 202.57 243.63 201.97 243.5C199.12 242.9 196.19 242.63 193.28 242.72C193.14 244.43 192.96 246.16 192.79 247.9C192.45 251.31 192.13 254.75 192.18 258.13C192.26 264.26 193.75 277.8 194.27 284.72C194.3 284.73 194.33 284.73 194.36 284.73C194.34 284.89 193.12 292.66 193.33 293.85C193.54 295.05 194.14 298.94 195.09 299.99C196.04 301.04 198.56 305.23 199.5 305.23C200.44 305.23 200.27 302.53 200.27 302.53C200.27 302.53 198.35 296.99 198.49 296.53C198.8 295.38 197.52 292.88 198.58 292.01C200.19 290.69 200.29 297.43 200.7 298.28C200.86 298.6 201.1 298.92 201.43 299.04C201.81 299.17 202.21 298.99 202.43 298.69C202.65 298.39 202.72 298.01 202.78 297.63C203.08 295.47 202.59 293.48 202.19 291.33C202 290.28 201.82 285.69 200.83 285.13Z" fill="#FEC4CD"/>
<path d="M252.16 284.72C252.18 284.88 253.4 292.65 253.19 293.84C252.98 295.04 252.37 298.93 251.42 299.99C250.47 301.03 247.95 305.23 247.01 305.23C246.08 305.23 246.24 302.53 246.24 302.53C246.24 302.53 248.16 296.99 248.03 296.54C247.72 295.39 249 292.89 247.93 292.02C246.32 290.71 246.22 297.45 245.8 298.29C245.65 298.61 245.41 298.93 245.08 299.04C244.88 299.11 244.67 299.1 244.5 299.02C244.33 298.95 244.18 298.84 244.07 298.69C243.85 298.39 243.78 298 243.72 297.63C243.42 295.47 243.91 293.48 244.31 291.34C244.5 290.29 244.68 285.69 245.67 285.14C245.71 285.11 245.76 285.09 245.8 285.06C245.62 278.71 244.64 273.62 244 267.3C243.69 264.21 243.35 259.89 243.43 256.78C243.47 255.24 243.93 243.63 244.53 243.5C246.34 243.11 248.18 242.86 250.03 242.76C251.09 242.7 252.16 242.69 253.22 242.72C253.36 244.43 253.54 246.16 253.71 247.9C254.05 251.31 254.37 254.74 254.32 258.13C254.24 264.27 252.75 277.81 252.23 284.72C252.22 284.72 252.19 284.72 252.16 284.72Z" fill="#FED2E2"/>
<path d="M248.76 269.57C249.39 276.28 248.49 285.94 248.49 285.94C248.49 285.94 246.01 289.32 245.4 293.19C245.1 295.11 244.76 297.31 244.51 299.02C244.34 298.95 244.19 298.84 244.08 298.69C243.86 298.39 243.79 298 243.73 297.63C243.43 295.47 243.92 293.48 244.32 291.34C244.51 290.29 244.69 285.69 245.68 285.14C245.72 285.11 245.77 285.09 245.81 285.06C245.63 278.71 244.65 273.62 244.01 267.3C243.7 264.21 243.36 259.89 243.44 256.78C243.48 255.24 243.94 243.63 244.54 243.5C246.35 243.11 248.19 242.86 250.04 242.76C249.69 245.02 248.75 247.56 248.75 247.56C248.75 247.56 248.14 262.87 248.76 269.57Z" fill="#FEC4CD"/>
<path d="M244.78 215.45C244.78 225 242.49 281.12 242.49 281.12H203.98C203.98 281.12 201.26 225.05 201.26 215.51C204.57 213.66 208.28 212.29 212.17 211.41C212.96 211.23 213.76 211.06 214.56 210.93C220.75 209.82 227.26 209.89 233.24 211.11C237.46 211.99 241.42 213.43 244.78 215.45Z" fill="#E5EEFF"/>
<path d="M212.17 234.72C212.26 237.9 214.14 265.42 215.22 281.12H203.97C203.97 281.12 201.25 225.05 201.25 215.51C204.56 213.66 208.27 212.29 212.16 211.41C212.95 211.23 213.75 211.06 214.55 210.93C218.03 214.45 223.07 219.8 223.07 219.8C215.31 227.72 212.05 230.26 212.17 234.72Z" fill="#DAE7FF"/>
<path d="M208.2 194.74C204.86 192.68 203.92 194.32 204.09 196.48C204.25 198.64 205.36 203.96 209.09 202.77C212.35 200.75 208.2 194.74 208.2 194.74Z" fill="#FEC4CD"/>
<path d="M235.8 191.71C238.62 188.98 239.89 190.37 240.19 192.52C240.5 194.67 240.58 200.09 236.68 199.74C233.06 198.47 235.8 191.71 235.8 191.71Z" fill="#FED2E2"/>
<path d="M233.24 211.12C232.56 214.6 230.21 217.48 227.05 218.88C225.84 219.44 224.5 219.76 223.08 219.81C222.94 219.82 222.81 219.82 222.67 219.82C217.54 219.82 213.24 216.23 212.16 211.42C217.62 210.15 223.44 209.83 228.99 210.46C230.44 210.62 231.85 210.84 233.24 211.12Z" fill="#FED2E2"/>
<path d="M229 210.46C228.15 212.53 226.18 216.68 223.09 219.81C222.95 219.82 222.82 219.82 222.68 219.82C217.55 219.82 213.25 216.23 212.17 211.42C217.63 210.15 223.45 209.84 229 210.46Z" fill="#FEC4CD"/>
<path d="M229.49 199.79H215.99V214.25H229.49V199.79Z" fill="#FED2E2"/>
<path d="M229.49 209.18C229.49 209.18 228.72 211.49 227.16 214.25H215.99V204.74C222.17 206.58 229.49 209.18 229.49 209.18Z" fill="#FEC4CD"/>
<path d="M223.69 210.43C221.91 210.62 220.27 210.49 218.75 210.06C211.94 208.18 207.77 200.65 206.78 192.46C206.19 187.59 206.34 183.41 207.56 180.14C209.22 175.7 212.9 172.9 219.49 172.18C230.95 170.92 235.39 179.69 236.31 189.22C237.27 199.25 233.44 209.36 223.69 210.43Z" fill="#FED2E2"/>
<path d="M218.75 210.07C211.94 208.19 207.77 200.66 206.78 192.47C206.19 187.6 206.34 183.42 207.56 180.15C210.04 180.87 212.17 181.62 212.17 181.62C210.31 195.1 212.88 204.43 218.75 210.07Z" fill="#FEC4CD"/>
<path d="M237.58 181.48C237.68 185.12 236.76 188.7 236.59 192.33C235.05 185.02 231.19 178.25 231.19 178.25C222.66 182.01 208.31 181.65 208.31 181.65C207.49 187.3 206.52 192.55 207.16 195.56C205.85 189.37 201.68 179.55 206.98 174.22C204.83 172.06 204.71 168.29 204.81 167.82C207.14 168.59 209.46 169.37 211.79 170.14C211.69 170.08 211.6 170.03 211.5 169.97C210.09 169.02 209.18 167.37 209.15 165.68C209.15 165.68 209.15 165.68 209.16 165.69C214.46 170.06 219.26 163.96 228.79 166.08C230.55 166.48 232.3 167.21 233.53 168.53C234.77 169.83 235.26 172.01 234.17 173.44C234.89 172.48 236.51 176.02 236.58 176.28C237.07 178.01 237.53 179.64 237.58 181.48Z" fill="#B36A3B"/>
<path d="M215.99 192.95C216.06 193.55 215.62 194.09 215.03 194.15C214.43 194.22 213.89 193.78 213.83 193.19C213.76 192.59 214.2 192.05 214.79 191.99C215.39 191.92 215.92 192.36 215.99 192.95Z" fill="#2E4A88"/>
<path d="M229.05 191.52C229.12 192.12 228.68 192.66 228.09 192.72C227.49 192.79 226.95 192.35 226.89 191.76C226.82 191.16 227.26 190.62 227.85 190.56C228.44 190.5 228.98 190.92 229.05 191.52Z" fill="#2E4A88"/>
<path d="M212.1 189.68C213.12 188.84 214.41 188.35 215.73 188.31" stroke="#2E4A88" stroke-width="0.5" stroke-miterlimit="10"/>
<path d="M225.68 187.49C226.92 187.09 228.27 187.06 229.53 187.39" stroke="#2E4A88" stroke-width="0.5" stroke-miterlimit="10"/>
<path d="M223.02 281.06H203.97V315.42H220.64L223.02 299.66L225.39 315.42H242.06V281.06H223.02Z" fill="#2E4A88"/>
<path d="M215.22 281.12L212.17 315.42H203.97V281.06L215.22 281.12Z" fill="#1E407B"/>
<path d="M225.39 315.42L223.02 299.66L217.07 296.46H231.17L233.24 315.42H225.39Z" fill="#1E407B"/>
<path d="M219.22 315.42L215.97 362.12L209.07 362.07L204.51 362.03L206.4 315.42H219.22Z" fill="#FED2E2"/>
<path d="M212.79 315.42L209.07 362.07L204.51 362.03L206.4 315.42H212.79Z" fill="#FEC4CD"/>
<path d="M216.08 372.99H192.9C192.9 372.99 192.42 370.08 194.71 367.59C197 365.11 204.5 362.04 204.5 362.04L209.06 362.08L215.96 362.13L216.08 372.99Z" fill="#2E4A88"/>
<path d="M209.02 362.67L201.26 368.43C201.26 368.43 207.18 368.72 207.2 372.94V372.99H192.91C192.91 372.99 192.43 370.08 194.72 367.59C197.01 365.11 204.51 362.04 204.51 362.04L209.07 362.08L209.02 362.67Z" fill="#1E407B"/>
<path d="M242.75 362.03L237.06 362.08L231.29 362.12L228.03 315.42H240.85L242.75 362.03Z" fill="#FED2E2"/>
<path d="M237.06 362.08L231.29 362.12L228.03 315.42H234.11L237.06 362.08Z" fill="#FEC4CD"/>
<path d="M254.34 372.99H231.16L231.29 362.13L237.06 362.08L242.75 362.04C242.75 362.04 250.24 365.1 252.53 367.59C254.83 370.08 254.34 372.99 254.34 372.99Z" fill="#2E4A88"/>
<path d="M245.34 372.99H231.16L231.29 362.13L237.06 362.08V362.13C237.06 362.13 243.92 367.87 244.78 369.32C245.18 369.98 245.31 371.52 245.34 372.99Z" fill="#1E407B"/>
<path d="M244.78 215.45C248.69 217.01 254.25 232.9 254.25 245.68C248.69 248.63 243.28 247.78 243.28 247.78L244.78 215.45Z" fill="#E5EEFF"/>
<path d="M201.26 215.52C197.35 217.08 191.79 232.93 191.79 245.68C197.35 248.62 202.76 247.77 202.76 247.77L201.26 215.52Z" fill="#DAE7FF"/>
<path d="M212.17 198.37L206.44 193.75" stroke="#B4DAFF" stroke-width="0.5" stroke-miterlimit="10" stroke-linecap="round"/>
<path d="M233.05 196.48L236.83 191" stroke="#B4DAFF" stroke-width="0.5" stroke-miterlimit="10" stroke-linecap="round"/>
<path d="M229.18 174.5C227.12 175.08 224.93 175.31 222.79 175.53C225.17 176.42 227.72 176.87 230.26 176.84C229.45 176.85 228.13 177.76 227.36 178.08C226.26 178.53 225.15 178.97 224.02 179.35C221.74 180.13 219.5 180.43 217.15 180.86C215.25 181.21 213.59 181.58 211.61 181.64C210.51 181.67 209.41 181.69 208.31 181.66C207.49 187.31 206.52 192.56 207.16 195.57C205.85 189.38 201.68 179.56 206.98 174.23C204.83 172.07 204.71 168.3 204.81 167.83C204.81 168.32 206.47 169.48 206.85 169.78C207.57 170.35 208.35 170.85 209.17 171.26C210.93 172.13 212.55 172.33 214.49 172.52C214.82 172.55 215.19 172.57 215.42 172.33C212.78 170.76 209.21 169.29 209.16 165.7C209.24 165.92 210.65 169.53 216.53 169.53C220.16 169.54 223.5 168.84 227.09 169.9C229.13 170.5 231.06 171.58 232.43 173.2C231.4 173.77 230.31 174.19 229.18 174.5Z" fill="#9D5830"/>
<path d="M235.01 200.93C235.01 200.93 233.37 210.48 223.32 211.26C222.1 211.36 220.99 211.31 219.98 211.14C212.57 209.98 210.17 202.93 210.17 202.93L211.63 197.18C211.84 197.25 212.05 197.31 212.27 197.36C219.88 199.45 230.99 197.71 233.25 194.39C235.17 200.44 235.01 200.93 235.01 200.93Z" fill="#B4DAFF"/>
<path d="M219.97 211.15C212.56 209.99 210.16 202.94 210.16 202.94L211.62 197.19C211.83 197.26 212.04 197.32 212.26 197.37C213.43 203.43 216.08 207.98 219.97 211.15Z" fill="#A0D0FF"/>
<path d="M146.87 304.86L145.29 323.43L142.03 361.45L135.41 361.39L129.87 361.34L133.28 304.86H146.87Z" fill="#FED2E2"/>
<path d="M146.87 304.86L145.29 323.43C140.31 325.01 137.64 325.7 137.64 325.7L135.42 361.39L129.88 361.34L133.28 304.86H146.87Z" fill="#FEC4CD"/>
<path d="M144.56 372.99H122.5C122.5 372.99 121.99 369.9 124.42 367.26C126.86 364.62 129.85 361.36 129.85 361.36L135.39 361.4L142.02 361.45C144.15 363.87 144.98 367.73 144.56 372.99Z" fill="#2E4A88"/>
<path d="M138.03 372.99H122.51C122.51 372.99 122 369.9 124.43 367.26C126.87 364.62 129.86 361.36 129.86 361.36L135.4 361.4L129.18 368.43C129.18 368.43 135.91 368.47 137 368.95C137.78 369.3 137.98 371.65 138.03 372.99Z" fill="#293D6C"/>
<path d="M176.76 361.34L169.04 361.41L164.59 361.45L159.67 305.46H173.27L174.27 321.53L176.76 361.34Z" fill="#FED2E2"/>
<path d="M168.21 326.06C168.21 326.06 168.78 359.98 169.03 361.41L164.58 361.45L159.66 305.46H173.26L174.27 321.53C170.8 324.81 168.21 326.06 168.21 326.06Z" fill="#FEC4CD"/>
<path d="M185.47 372.99H163.27C162.96 367.18 163.22 363.86 164.59 361.45L169.04 361.42L176.76 361.36C176.76 361.36 181.11 364.62 183.54 367.26C185.98 369.9 185.47 372.99 185.47 372.99Z" fill="#2E4A88"/>
<path d="M171.01 372.99H163.27C162.96 367.18 163.22 363.86 164.59 361.45L169.04 361.42C169.04 361.43 169.05 361.44 169.05 361.45C169.29 362.07 170.74 367.5 170.86 369.67C170.9 370.63 170.96 371.88 171.01 372.99Z" fill="#293D6C"/>
<path d="M139.86 178.99C139.23 181.83 139.14 184.68 140.17 187.37C140.48 188.17 140.9 188.94 141.5 189.56C142.47 190.55 143.83 191.06 145.16 191.43C148.9 192.48 152.83 192.74 156.71 192.75C159.8 192.76 163.01 192.58 165.76 191.15C168.64 189.66 170.77 186.79 171.37 183.61C171.66 182.06 171.62 180.47 171.57 178.89C171.51 176.88 171.44 174.87 171.38 172.86C171.35 171.8 171.3 170.7 170.85 169.73C169.66 167.19 164.88 167.52 162.47 167.17L144.04 167.76C142.64 171.16 140.73 175.06 139.86 178.99Z" fill="#54393C"/>
<path d="M132.07 191.48C121.62 197.05 119.7 220.07 119.7 220.07L132.43 227.03L132.07 191.48Z" fill="#D76E43"/>
<path d="M177.32 190.79C187.77 196.36 189.69 219.38 189.69 219.38L176.96 226.34L177.32 190.79Z" fill="#FF7F51"/>
<path d="M186.35 312.28C177.46 317.4 163.02 319.63 149.36 318.77C139.7 318.17 130.44 316.03 123.79 312.28L132.66 247.2C132.43 241.22 130.77 197.45 131.89 191.52C131.95 191.23 132.01 191.03 132.08 190.93C134.07 189.92 138.81 188.21 144.25 187.03C145.48 186.76 146.73 186.52 148.01 186.31C150.36 185.94 152.76 185.71 155.05 185.71C159.18 185.71 163.96 186.33 168.11 187.23C172.25 188.11 175.75 189.26 177.33 190.31C177.63 190.53 177.88 190.73 178.03 190.93C179.61 193 177.71 240.73 177.45 247.16C177.93 249.86 184.76 287.13 186.35 312.28Z" fill="#FF7F51"/>
<path d="M149.36 318.77C139.7 318.17 130.44 316.03 123.79 312.28L132.66 247.2C132.43 241.22 130.77 197.45 131.89 191.52C131.95 191.23 132.01 191.03 132.08 190.93C134.07 189.92 138.81 188.21 144.25 187.03C145.48 186.76 146.73 186.52 148.01 186.31L150.15 194.28C145.62 200.77 144.21 207.21 144.91 210.52C145.62 213.83 149.62 262.48 150.15 290.66C150.37 303.11 149.93 312.34 149.36 318.77Z" fill="#D76E43"/>
<path d="M143.6 197.31C143.94 197.38 144.3 197.4 144.62 197.26C144.96 197.11 145.23 196.75 145.16 196.39C145.12 196.15 144.95 195.96 144.79 195.78C143.3 194.09 141.24 192.01 140.19 190.05C139.35 188.48 140.35 186.12 138.57 185C137.51 184.33 136.11 184.44 134.97 184.95C133.83 185.46 132.89 186.33 131.98 187.19C131.07 188.04 130.17 188.88 129.26 189.73C128.49 190.45 127.71 191.19 127.19 192.1C125.67 194.79 127.23 198.62 128.83 200.95C129.51 201.94 130.4 202.77 131.28 203.58C131.56 203.84 131.84 204.1 132.2 204.22C132.56 204.35 133 204.3 133.24 204.01C133.42 203.57 133.28 203.06 133.03 202.67C132.78 202.27 132.42 201.95 132.11 201.6C130.8 200.12 130.26 198.13 129.77 196.22C130.48 197.91 131.92 199.15 133.02 200.56C134.22 202.08 135.89 203.49 137.77 204.05C138.06 204.14 138.37 204.21 138.67 204.15C138.97 204.09 139.25 203.88 139.31 203.58C139.35 203.37 139.27 203.16 139.17 202.98C138.71 202.06 137.89 201.39 137.17 200.66C135.56 199.04 134.36 197.02 133.7 194.84C134.4 196.7 140.44 201.9 142.48 202.08C142.78 202.11 143.14 202.06 143.28 201.8C143.37 201.64 143.35 201.45 143.32 201.27C143.24 200.71 143.13 200.14 142.8 199.68C142.58 199.37 142.27 199.13 141.98 198.89C140.7 197.82 139.48 196.52 138.6 195.09C137.83 193.83 137.3 192.05 136.4 190.92C137.81 192.67 139.55 194.75 141.3 196.15C141.96 196.68 142.72 197.12 143.55 197.3C143.56 197.3 143.58 197.3 143.6 197.31Z" fill="#FEB5C0"/>
<path d="M150.14 194.28C151.95 195.31 154.01 195.91 156.19 195.91C157.98 195.91 159.67 195.54 161.2 194.84C163.25 193.92 165.03 192.43 166.37 190.57C162.38 184.13 154.73 188.98 150.14 194.28Z" fill="#FED2E2"/>
<path d="M163.92 187.02C160.02 186.27 153.95 187.87 147.7 189.66V169.52H163.92V187.02Z" fill="#FEB5C0"/>
<path d="M155.04 185.71C151.5 185.71 147.72 186.31 144.24 187.16C145.34 190.22 147.46 192.74 150.14 194.28C154.73 188.98 162.38 184.13 166.37 190.57C167.07 189.6 167.66 188.53 168.1 187.38C163.96 186.4 159.16 185.71 155.04 185.71Z" fill="#FEB5C0"/>
<path d="M171.01 164.71C170.92 171.52 168.71 178.13 164.33 181.8C162.14 183.65 159.39 184.74 156.1 184.74C152.48 184.74 149.51 183.42 147.21 181.22C143.27 177.46 141.27 171.18 141.19 164.71C141.08 155 143.45 148.3 150.84 146.28C152.37 145.85 154.12 145.64 156.11 145.64C158.46 145.64 160.47 146.03 162.19 146.72C168.93 149.45 171.11 156.96 171.01 164.71Z" fill="#FED2E2"/>
<path d="M158.98 152.77C153.46 159.22 149.81 160.07 146.14 159.82C145.17 166.93 146.29 175.77 147.2 181.22C143.26 177.46 141.26 171.18 141.18 164.71C141.07 155 143.44 148.3 150.83 146.28C153.22 146.9 158.98 152.77 158.98 152.77Z" fill="#FEC4CD"/>
<path d="M171.01 164.71C170.92 171.52 168.71 178.13 164.33 181.8C165.05 173.88 166.45 158.64 166.27 158.37C166.02 158.01 161.18 154.99 161.49 149.92C161.56 148.86 161.8 147.76 162.18 146.72C168.93 149.45 171.11 156.96 171.01 164.71Z" fill="#FEC4CD"/>
<path d="M146.31 170.47L140.58 165.85" stroke="#B4DAFF" stroke-width="0.5" stroke-miterlimit="10" stroke-linecap="round"/>
<path d="M164.48 170.83L170.21 166.21" stroke="#B4DAFF" stroke-width="0.5" stroke-miterlimit="10" stroke-linecap="round"/>
<path d="M169.01 175.13C168.82 177.76 167.14 180.93 164.21 183.11C162.13 184.67 159.4 185.71 156.1 185.71C152.62 185.71 149.59 183.79 147.28 181.61C144.32 178.84 142.54 175.68 142.54 175.68L144.25 168.49C144.79 168.66 145.32 168.82 145.84 168.96C153.98 171.27 159.67 170.94 165.5 168.86C166.11 168.64 166.71 168.41 167.32 168.15L169.01 175.13Z" fill="#B4DAFF"/>
<path d="M147.27 181.61C144.31 178.84 142.53 175.68 142.53 175.68L144.24 168.49C144.78 168.66 145.31 168.82 145.83 168.96C146.05 173.72 146.71 178.34 147.27 181.61Z" fill="#A0D0FF"/>
<path d="M169.01 175.13C168.82 177.76 167.14 180.93 164.21 183.11C164.53 179.6 165.05 173.9 165.51 168.86C166.12 168.64 166.72 168.41 167.33 168.15L169.01 175.13Z" fill="#A0D0FF"/>
<path d="M150.83 165.32C150.83 165.88 150.38 166.34 149.81 166.34C149.25 166.34 148.79 165.89 148.79 165.32C148.79 164.76 149.24 164.3 149.81 164.3C150.37 164.3 150.83 164.76 150.83 165.32Z" fill="#684346"/>
<path d="M163.49 165.32C163.49 165.88 163.04 166.34 162.47 166.34C161.91 166.34 161.45 165.89 161.45 165.32C161.45 164.76 161.9 164.3 162.47 164.3C163.03 164.3 163.49 164.76 163.49 165.32Z" fill="#684346"/>
<path d="M147.63 163.01C148.41 162.37 149.42 162.02 150.43 162.05" stroke="#684346" stroke-width="0.5" stroke-miterlimit="10"/>
<path d="M161.49 161.75C162.63 161.69 163.79 162.02 164.72 162.68" stroke="#684346" stroke-width="0.5" stroke-miterlimit="10"/>
<path d="M177.08 188.35C177.1 190.68 175.88 192.98 173.95 194.27C171.67 195.8 168.75 195.88 166.01 195.91C166.9 195.87 167.48 195.01 167.91 194.24C168.56 193.09 169.22 191.67 168.58 190.52C168.14 189.72 167.21 189.33 166.57 188.67C165.78 187.84 165.5 186.62 165.57 185.47C165.66 184.32 166.05 183.22 166.45 182.14C168 177.94 168.04 172.9 168.32 168.42C168.39 167.46 169.12 157.3 167.97 157.08C162.15 156.02 160.35 149.89 160.35 149.89C158.55 156.77 148.75 159.14 143.78 157.23C142.5 161.59 142.99 166.66 143.26 171.13C143.4 173.45 143.9 175.91 143.78 178.22C143.71 179.5 143.69 180.22 144.23 181.46C144.68 182.52 145.3 183.54 145.37 184.72C145.45 185.96 144.89 187.13 144.72 188.35C144.39 190.78 145.87 193.34 148.14 194.26C145.37 195.16 142.26 195.37 139.57 194.41C139 194.21 138.45 193.96 137.92 193.64C134.89 191.84 133.08 187.83 134.5 184.61C135.82 181.6 138.05 179.28 138.13 175.81C138.16 174.2 137.81 172.6 137.55 171.02C135.77 160.37 137.25 147.43 147.26 141.27C150.87 139.06 156.85 137.96 159.91 141.54C159.99 141.63 161.74 141.05 161.96 141.02C162.95 140.89 164.05 141.07 164.99 141.3C166.97 141.79 168.82 142.88 170.17 144.41C171.03 145.4 171.69 146.54 172.25 147.71C174.19 151.83 174.91 156.44 174.89 160.99C174.87 164.08 174.53 167.16 174.05 170.21C173.61 173.07 173.06 175.58 173.71 178.47C173.88 179.21 174.1 179.93 174.37 180.58C175.42 183.1 177.06 185.53 177.08 188.35Z" fill="#744D50"/>
<path d="M131.32 239.37C130.94 239.91 130.48 240.39 129.96 240.79C129.82 240.9 129.66 241 129.51 241.1C128.57 241.7 127.47 242.04 126.36 241.96C124.78 241.86 123.34 240.97 122.24 239.83C120.41 237.94 119.41 235.36 118.97 232.76C118.54 230.16 118.58 225.2 118.67 222.57C118.96 213.92 118.68 205.5 118.06 196.86C117.97 195.64 116.8 194.05 116.07 193.06C114.38 190.8 114.04 187.83 113.77 185.01C113.69 184.22 113.67 183.66 114.22 183.11C114.36 182.97 115.53 182.29 115.61 182.66C115.21 180.72 117.16 180.63 117.76 179.31C117.96 178.87 117.64 177.69 117.61 177.21C117.44 174.7 117.19 172.16 117.19 169.65C117.19 167.82 118.65 166.97 119.22 169.19C119.78 171.41 121.58 179.31 121.58 179.31C121.58 179.31 123.05 170.01 123.39 168.9C123.52 168.49 123.77 168.32 124.04 168.4C124.49 168.53 125.02 169.36 125.08 170.9C125.16 172.73 125.13 174.56 125.12 176.39C125.12 177.43 124.84 179.96 125.29 182.14C125.82 182.51 126.4 182.84 126.89 183.27C127.38 183.7 127.8 184.28 127.89 184.92C127.96 185.38 127.86 185.85 127.75 186.29C126.88 189.6 125.54 192.49 126 196.03C126.6 200.63 128.32 205.21 129.46 209.7C130.67 214.45 132.15 221.46 132.76 226.34C133.27 230.27 133.72 235.95 131.32 239.37Z" fill="#FEB5C0"/>
<path d="M131.32 239.37C130.94 239.91 130.48 240.39 129.96 240.79C130.65 237.44 131.43 232.3 130.81 228.67C129.81 222.86 123.65 198.52 123.11 194.79C122.57 191.08 125.01 186.36 124.06 186.78C123.1 187.19 120.3 185.82 120.75 185.1C121.2 184.38 123.88 182.74 123.88 182.74V168.51L124.04 168.39C124.49 168.52 125.02 169.35 125.08 170.89C125.16 172.72 125.13 174.55 125.12 176.38C125.12 177.42 124.84 179.95 125.29 182.13C125.82 182.5 126.4 182.83 126.89 183.26C127.38 183.69 127.8 184.27 127.89 184.91C127.96 185.37 127.86 185.84 127.75 186.28C126.88 189.59 125.54 192.48 126 196.02C126.6 200.62 128.32 205.2 129.46 209.69C130.67 214.44 132.15 221.45 132.76 226.33C133.27 230.27 133.72 235.95 131.32 239.37Z" fill="#FED2E2"/>
<path d="M196.02 184.12C195.75 186.93 195.41 189.91 193.72 192.17C192.99 193.16 191.82 194.74 191.73 195.97C191.11 204.61 190.83 213.02 191.12 221.68C191.21 224.31 191.26 229.27 190.82 231.87C190.38 234.47 189.38 237.04 187.54 238.94C186.92 239.58 186.2 240.14 185.39 240.52C184.77 240.83 184.11 241.02 183.43 241.07C182.32 241.15 181.22 240.81 180.27 240.21C179.56 239.76 178.95 239.16 178.46 238.48C176.06 235.05 176.52 229.38 177.01 225.45C177.63 220.58 179.1 213.55 180.32 208.81C181.46 204.34 183.18 199.74 183.78 195.15C184.24 191.6 182.9 188.7 182.03 185.4C181.91 184.96 181.82 184.49 181.88 184.04C181.98 183.38 182.39 182.82 182.89 182.39C183.38 181.96 183.95 181.63 184.49 181.25C185.4 180.62 184.66 176.55 184.65 175.51C184.65 173.67 184.62 171.85 184.7 170.01C184.82 167.56 186.05 166.91 186.39 168.02C186.73 169.13 188.19 178.42 188.19 178.42C188.19 178.42 190 170.53 190.56 168.31C190.78 167.4 191.17 167.01 191.54 167C192.08 166.95 192.59 167.7 192.59 168.78C192.59 171.29 192.34 173.82 192.17 176.33C192.13 176.8 191.82 177.99 192.03 178.43C192.63 179.76 194.56 179.84 194.18 181.79C194.25 181.42 195.44 182.11 195.57 182.23C196.12 182.75 196.1 183.31 196.02 184.12Z" fill="#FEC4CD"/>
<path d="M172.4 189C172.4 193.8 171.07 195.49 166 195.92C166.89 195.88 167.47 195.02 167.9 194.25C168.55 193.1 169.21 191.68 168.57 190.53C168.13 189.73 167.2 189.34 166.56 188.68C165.77 187.85 165.49 186.63 165.56 185.48C165.65 184.33 166.04 183.23 166.44 182.15C167.99 177.95 168.03 172.91 168.31 168.43C168.38 167.47 169.11 157.31 167.96 157.09C162.14 156.03 160.34 149.9 160.34 149.9C158.54 156.78 148.74 159.15 143.77 157.24C142.49 161.6 142.98 166.67 143.25 171.14C143.39 173.46 143.89 175.92 143.77 178.23C143.7 179.51 143.68 180.23 144.22 181.47C144.67 182.53 145.29 183.55 145.36 184.73C145.44 185.97 144.88 187.14 144.71 188.36C144.38 190.79 145.86 193.35 148.13 194.27C145.36 195.17 142.25 195.38 139.56 194.42C138.13 191.03 142.33 184.99 141.14 182.23C139.72 178.91 138.49 165.53 142.51 154.21C146.54 142.88 154.98 141.07 159.68 145.64C164.94 144.78 171.46 151.49 171.58 157.09C171.69 162.7 169.74 177.31 169.17 180.41C168.63 183.52 172.4 184.19 172.4 189Z" fill="#684346"/>
<path d="M196.02 184.12C195.75 186.93 195.41 189.91 193.72 192.17C192.99 193.16 191.82 194.74 191.73 195.97C191.11 204.61 190.83 213.02 191.12 221.68C191.21 224.31 191.26 229.27 190.82 231.87C190.38 234.47 189.38 237.04 187.54 238.94C186.92 239.58 186.2 240.14 185.39 240.52C186.59 238.47 188.14 235.34 188.37 232.69C188.73 228.34 189.21 198.22 189.21 195.58C189.21 192.95 191.36 189.67 191.36 189.67C191.36 189.67 188.5 189.2 188.86 187.99C189.22 186.78 190.55 179.6 190.55 179.6L191.54 166.99C192.08 166.94 192.59 167.69 192.59 168.77C192.59 171.28 192.34 173.81 192.17 176.32C192.13 176.79 191.82 177.98 192.03 178.42C192.63 179.75 194.56 179.83 194.18 181.78C194.25 181.41 195.44 182.1 195.57 182.22C196.12 182.75 196.1 183.31 196.02 184.12Z" fill="#FED2E2"/>
<path d="M274 177.04C273.89 182.06 251.45 215.03 251.45 215.03L245.57 210.94L243.08 209.2L260.11 171.83L257.79 161.13L264.84 160.25L273.2 159.21C273.26 159.69 274.11 172.18 274 177.04Z" fill="#FED2E2"/>
<path d="M265.77 174.57C264.18 177.73 250.97 201.31 245.57 210.95L243.08 209.21L260.11 171.84L257.79 161.14L264.84 160.26C266.04 161.15 266.82 161.75 266.82 161.75C266.82 161.75 267.77 170.58 265.77 174.57Z" fill="#FEC4CD"/>
<path d="M274.38 158.6C271.59 161.07 269.19 162.96 266.74 164.26C263.89 165.78 260.97 166.52 257.25 166.52C256.47 164.6 257 160.86 257.89 152.71C258.32 148.84 259.77 143.42 261.33 138.38C263.56 131.21 266.02 124.81 266.02 124.81C270.2 130.93 271.56 149.51 274.38 158.6Z" fill="#FF7F51"/>
<path d="M266.97 163.74L266.74 164.26C263.89 165.78 260.97 166.52 257.25 166.52C256.47 164.6 257 160.86 257.89 152.71C258.32 148.84 259.77 143.42 261.33 138.38C261.53 138.57 261.68 138.85 261.76 139.22C262.78 143.46 266.82 161.74 266.97 163.74Z" fill="#D76E43"/>
<path d="M238.52 208.61C237.46 208.62 236.38 208.58 235.29 208.54C234.69 208.52 230.1 208.35 230.27 209.51C230.56 211.42 235.35 211.49 236.72 211.74C234.58 213.91 232.75 216.37 231.29 219.05C231.08 219.44 230.86 219.86 230.85 220.3C230.84 220.75 231.09 221.23 231.53 221.34C231.88 221.43 232.24 221.25 232.55 221.05C234.91 219.52 236.13 216.57 238.63 215.28C237.06 217.33 235.93 219.71 235.34 222.23C235.17 222.95 235.22 223.95 235.94 224.11C236.54 224.24 237.02 223.62 237.31 223.08C238.81 220.34 240.27 217.34 242.99 215.8C241.89 217.63 240.9 219.53 240.03 221.48C239.39 222.92 238.8 224.51 239.2 226.04C240.02 226.18 240.68 225.4 241.17 224.73C242.86 222.4 244.82 220.26 247 218.38C247.04 220.43 246.42 222.49 245.25 224.17C244.94 224.62 244.58 225.05 244.47 225.59C244.36 226.13 244.59 226.78 245.11 226.92C245.49 227.02 245.88 226.83 246.22 226.62C248.41 225.22 249.63 222.8 250.49 220.43C250.94 219.2 251.44 217.86 251.65 216.57C251.85 215.38 252.48 213.61 252.28 212.42C252.15 211.67 251.62 211.04 250.99 210.61C250.36 210.18 249.64 209.91 248.95 209.61C247.87 209.14 246.83 208.59 245.85 207.95C244.53 207.1 244.29 207.7 243.15 208.18C241.84 208.72 239.91 208.6 238.52 208.61Z" fill="#FED2E2"/>
<path d="M315.96 190.56C316.03 191.14 315.19 191.27 314.63 191.16C312.62 190.76 311 189.8 309.07 189.2C308.18 188.92 307.28 188.72 306.36 188.59C306.72 188.65 307.63 189.39 308.03 189.59C308.73 189.93 309.4 190.31 310.05 190.74C311.32 191.62 312.46 192.67 313.43 193.9C313.6 194.1 313.75 194.32 313.81 194.58C313.87 194.83 313.81 195.14 313.59 195.29C313.39 195.43 313.13 195.41 312.89 195.36C311.12 194.99 309.42 193.41 307.83 192.56C306.3 191.73 304.65 191.14 302.94 190.81C305.26 191.74 307.58 193.2 309.46 194.82C309.87 195.18 310.31 195.71 310.11 196.23C309.97 196.61 309.47 196.79 309.06 196.72C308.64 196.66 308.28 196.42 307.92 196.2C305.59 194.76 302.99 194.36 300.6 193.17C301.56 194.28 302.86 195.03 303.84 196.14C304.22 196.57 304.6 197.06 304.66 197.64C304.68 197.82 304.66 198.02 304.5 198.11C304.43 198.16 304.33 198.16 304.24 198.16C303.36 198.12 302.58 197.63 301.86 197.14C300.15 196.01 298.72 194.92 296.74 194.34C296.34 194.23 293.03 193.64 291.47 193.7L292.46 186.58C296.47 186.41 300.61 185.38 304.53 185.81C308.48 186.24 312.31 187.61 315.52 190C315.72 190.15 315.94 190.32 315.96 190.56Z" fill="#FED2E2"/>
</svg>
