<svg width="28" height="28" viewBox="0 0 28 28" fill="none" xmlns="http://www.w3.org/2000/svg">
<path d="M20.4207 0H7.57935C3.40002 0 0 3.40002 0 7.57935V20.4209C0 24.6 3.40002 28 7.57935 28H20.4209C24.6 28 28 24.6 28 20.4209V7.57935C28 3.40002 24.6 0 20.4207 0V0ZM26.3585 20.4209C26.3585 23.6949 23.6949 26.3585 20.4207 26.3585H7.57935C4.30515 26.3585 1.64148 23.6949 1.64148 20.4209V7.57935C1.64148 4.30515 4.30515 1.64148 7.57935 1.64148H20.4209C23.6949 1.64148 26.3585 4.30515 26.3585 7.57935V20.4209Z" fill="white"/>
<path d="M13.9998 6.34396C9.77817 6.34396 6.34375 9.77838 6.34375 14C6.34375 18.2216 9.77817 21.656 13.9998 21.656C18.2214 21.656 21.6558 18.2216 21.6558 14C21.6558 9.77838 18.2214 6.34396 13.9998 6.34396ZM13.9998 20.0146C10.6835 20.0146 7.98523 17.3165 7.98523 14C7.98523 10.6837 10.6835 7.98544 13.9998 7.98544C17.3163 7.98544 20.0143 10.6837 20.0143 14C20.0143 17.3165 17.3163 20.0146 13.9998 20.0146Z" fill="white"/>
<path d="M21.8389 3.62497C20.5914 3.62497 19.5767 4.63989 19.5767 5.88724C19.5767 7.1348 20.5914 8.14972 21.8389 8.14972C23.0865 8.14972 24.1014 7.1348 24.1014 5.88724C24.1014 4.63968 23.0865 3.62497 21.8389 3.62497ZM21.8389 6.50803C21.4967 6.50803 21.2181 6.22946 21.2181 5.88724C21.2181 5.5448 21.4967 5.26645 21.8389 5.26645C22.1814 5.26645 22.4599 5.5448 22.4599 5.88724C22.4599 6.22946 22.1814 6.50803 21.8389 6.50803Z" fill="white"/>
</svg>
