<svg width="28" height="28" viewBox="0 0 28 28" fill="none" xmlns="http://www.w3.org/2000/svg">
<path d="M20.4207 0H7.57935C3.40002 0 0 3.40002 0 7.57935V20.4209C0 24.6 3.40002 28 7.57935 28H20.4209C24.6 28 28 24.6 28 20.4209V7.57935C28 3.40002 24.6 0 20.4207 0V0ZM26.3585 20.4209C26.3585 23.6949 23.6949 26.3585 20.4207 26.3585H7.57935C4.30515 26.3585 1.64148 23.6949 1.64148 20.4209V7.57935C1.64148 4.30515 4.30515 1.64148 7.57935 1.64148H20.4209C23.6949 1.64148 26.3585 4.30515 26.3585 7.57935V20.4209Z" fill="#404042"/>
<path d="M13.9998 6.34399C9.77817 6.34399 6.34375 9.77841 6.34375 14C6.34375 18.2216 9.77817 21.6561 13.9998 21.6561C18.2214 21.6561 21.6558 18.2216 21.6558 14C21.6558 9.77841 18.2214 6.34399 13.9998 6.34399V6.34399ZM13.9998 20.0146C10.6835 20.0146 7.98523 17.3165 7.98523 14C7.98523 10.6837 10.6835 7.98547 13.9998 7.98547C17.3163 7.98547 20.0143 10.6837 20.0143 14C20.0143 17.3165 17.3163 20.0146 13.9998 20.0146V20.0146Z" fill="#404042"/>
<path d="M21.8389 3.625C20.5914 3.625 19.5767 4.63992 19.5767 5.88727C19.5767 7.13483 20.5914 8.14975 21.8389 8.14975C23.0865 8.14975 24.1014 7.13483 24.1014 5.88727C24.1014 4.63971 23.0865 3.625 21.8389 3.625ZM21.8389 6.50806C21.4967 6.50806 21.2181 6.22949 21.2181 5.88727C21.2181 5.54483 21.4967 5.26648 21.8389 5.26648C22.1814 5.26648 22.4599 5.54483 22.4599 5.88727C22.4599 6.22949 22.1814 6.50806 21.8389 6.50806Z" fill="#404042"/>
</svg>
