<?xml version="1.0" encoding="utf-8"?>
<!-- Generator: Adobe Illustrator 24.0.2, SVG Export Plug-In . SVG Version: 6.00 Build 0)  -->
<svg version="1.1" id="Capa_1" xmlns="http://www.w3.org/2000/svg" xmlns:xlink="http://www.w3.org/1999/xlink" x="0px" y="0px"
	 viewBox="0 0 640 480" style="enable-background:new 0 0 640 480;" xml:space="preserve">
<style type="text/css">
	.st0{fill:#274763;}
	.st1{opacity:0.25;}
	.st2{fill:#FFFFFF;}
	.st3{fill:#242526;}
</style>
<g>
	<g>
		<path class="st0" d="M418,241c0,15.1-12.2,27.3-27.3,27.3h-43.6v43.6c0,15-12.2,27.3-27.3,27.3s-27.3-12.2-27.3-27.3V241
			c0-15.1,12.2-27.3,27.3-27.3h70.9C405.8,213.8,418,225.9,418,241z"/>
	</g>
	<g>
		<path class="st0" d="M347.1,171.2v70.9c0,15-12.2,27.3-27.3,27.3H249c-15.1,0-27.3-12.2-27.3-27.3s12.2-27.3,27.3-27.3h43.6v-43.6
			c0-15.1,12.2-27.3,27.3-27.3S347.1,156.2,347.1,171.2z"/>
	</g>
	<g class="st1">
		<path class="st2" d="M249,214.8c-15.1,0-27.3,12.2-27.3,27.3c0,9.4,4.8,17.7,12,22.6c11.5-17.7,24.6-34.4,38.9-49.8H249z"/>
		<path class="st2" d="M319.9,144c-15,0-27.3,12.2-27.3,27.3v23.6c15.5-14.4,32.1-27.4,49.7-39.1C337.4,148.6,329.2,144,319.9,144z"
			/>
	</g>
	<path class="st3" d="M292.6,267.2v8.2h33.7c16,0,29-13,29-29v-33.7h-8.2v27.3c0,15.1-12.2,27.3-27.3,27.3L292.6,267.2L292.6,267.2z
		"/>
</g>
</svg>
