<svg width="28" height="28" viewBox="0 0 28 28" fill="none" xmlns="http://www.w3.org/2000/svg">
<g clip-path="url(#clip0)">
<path d="M27.5667 2.78137C27.2247 2.3631 26.7124 2.13281 26.1241 2.13281C25.8043 2.13281 25.4655 2.2001 25.1173 2.33319L1.41582 11.3808C0.158003 11.8608 -0.0114001 12.5811 -0.000505371 12.9678C0.0103894 13.3544 0.220381 14.0641 1.5034 14.4723C1.51109 14.4747 1.51878 14.477 1.52647 14.4792L6.44279 15.8861L9.10155 23.4889C9.46406 24.5254 10.2778 25.1693 11.2254 25.1693C11.8229 25.1693 12.4106 24.9189 12.925 24.4455L15.9659 21.6456L20.3766 25.1971C20.377 25.1975 20.3776 25.1977 20.3781 25.1981L20.4199 25.2319C20.4238 25.2349 20.4278 25.2381 20.4317 25.2411C20.9219 25.6213 21.4571 25.8221 21.9798 25.8223H21.98C23.0014 25.8223 23.8146 25.0663 24.0515 23.8965L27.935 4.72086C28.0909 3.95117 27.9602 3.26245 27.5667 2.78137ZM8.08748 15.6188L17.5726 10.7732L11.6665 17.0488C11.5697 17.1516 11.5012 17.2774 11.4674 17.4143L10.3286 22.0273L8.08748 15.6188ZM11.8135 23.2386C11.7742 23.2747 11.7347 23.3069 11.6951 23.3366L12.7517 19.0573L14.6737 20.605L11.8135 23.2386ZM26.327 4.39508L22.4436 23.571C22.4062 23.7545 22.2868 24.1815 21.9798 24.1815C21.8281 24.1815 21.6376 24.0988 21.4425 23.9486L16.4446 19.9244C16.444 19.9238 16.4431 19.9231 16.4423 19.9227L13.4684 17.528L22.0093 8.45264C22.2827 8.16211 22.3075 7.71713 22.068 7.39798C21.8284 7.07883 21.3941 6.97842 21.0388 7.16L6.99138 14.3365L2.00819 12.9107L25.7024 3.86594C25.9026 3.78946 26.0423 3.77344 26.1241 3.77344C26.1743 3.77344 26.2636 3.77942 26.2967 3.82022C26.3403 3.87341 26.3958 4.05478 26.327 4.39508Z" fill="white"/>
</g>
<defs>
<clipPath id="clip0">
<rect width="28" height="28" fill="white"/>
</clipPath>
</defs>
</svg>
